STARTFONT 2.1
FONT -misc-console-medium-r-normal--8-80-75-75-c-80-iso10646-1
SIZE 8 75 75
FONTBOUNDINGBOX 8 8 0 -1
STARTPROPERTIES 5
FONT_ASCENT 7
FONT_DESCENT 1
DEFAULT_CHAR 32
FAMILY_NAME "console"
WEIGHT_NAME "medium"
ENDPROPERTIES
CHARS 530
STARTCHAR U+0020
ENCODING 32
SWIDTH 480 0
DWIDTH 8 0
BBX 8 8 0 -1
BITMAP
00
00
00
00
00
00
00
00
ENDCHAR
STARTCHAR U+0021
ENCODING 33
SWIDTH 480 0
DWIDTH 8 0
BBX 8 8 0 -1
BITMAP
18
3C
3C
18
18
00
18
00
ENDCHAR
STARTCHAR U+0022
ENCODING 34
SWIDTH 480 0
DWIDTH 8 0
BBX 8 8 0 -1
BITMAP
66
66
24
00
00
00
00
00
ENDCHAR
STARTCHAR U+0023
ENCODING 35
SWIDTH 480 0
DWIDTH 8 0
BBX 8 8 0 -1
BITMAP
6C
6C
FE
6C
FE
6C
6C
00
ENDCHAR
STARTCHAR U+0024
ENCODING 36
SWIDTH 480 0
DWIDTH 8 0
BBX 8 8 0 -1
BITMAP
18
3E
60
3C
06
7C
18
00
ENDCHAR
STARTCHAR U+0025
ENCODING 37
SWIDTH 480 0
DWIDTH 8 0
BBX 8 8 0 -1
BITMAP
00
C6
CC
18
30
66
C6
00
ENDCHAR
STARTCHAR U+0026
ENCODING 38
SWIDTH 480 0
DWIDTH 8 0
BBX 8 8 0 -1
BITMAP
38
6C
38
76
DC
CC
76
00
ENDCHAR
STARTCHAR U+0027
ENCODING 39
SWIDTH 480 0
DWIDTH 8 0
BBX 8 8 0 -1
BITMAP
18
18
30
00
00
00
00
00
ENDCHAR
STARTCHAR U+0028
ENCODING 40
SWIDTH 480 0
DWIDTH 8 0
BBX 8 8 0 -1
BITMAP
0C
18
30
30
30
18
0C
00
ENDCHAR
STARTCHAR U+0029
ENCODING 41
SWIDTH 480 0
DWIDTH 8 0
BBX 8 8 0 -1
BITMAP
30
18
0C
0C
0C
18
30
00
ENDCHAR
STARTCHAR U+002A
ENCODING 42
SWIDTH 480 0
DWIDTH 8 0
BBX 8 8 0 -1
BITMAP
00
66
3C
FF
3C
66
00
00
ENDCHAR
STARTCHAR U+002B
ENCODING 43
SWIDTH 480 0
DWIDTH 8 0
BBX 8 8 0 -1
BITMAP
00
18
18
7E
18
18
00
00
ENDCHAR
STARTCHAR U+002C
ENCODING 44
SWIDTH 480 0
DWIDTH 8 0
BBX 8 8 0 -1
BITMAP
00
00
00
00
00
18
18
30
ENDCHAR
STARTCHAR U+002D
ENCODING 45
SWIDTH 480 0
DWIDTH 8 0
BBX 8 8 0 -1
BITMAP
00
00
00
7E
00
00
00
00
ENDCHAR
STARTCHAR U+002E
ENCODING 46
SWIDTH 480 0
DWIDTH 8 0
BBX 8 8 0 -1
BITMAP
00
00
00
00
00
18
18
00
ENDCHAR
STARTCHAR U+002F
ENCODING 47
SWIDTH 480 0
DWIDTH 8 0
BBX 8 8 0 -1
BITMAP
06
0C
18
30
60
C0
80
00
ENDCHAR
STARTCHAR U+0030
ENCODING 48
SWIDTH 480 0
DWIDTH 8 0
BBX 8 8 0 -1
BITMAP
38
6C
C6
D6
C6
6C
38
00
ENDCHAR
STARTCHAR U+0031
ENCODING 49
SWIDTH 480 0
DWIDTH 8 0
BBX 8 8 0 -1
BITMAP
18
38
18
18
18
18
7E
00
ENDCHAR
STARTCHAR U+0032
ENCODING 50
SWIDTH 480 0
DWIDTH 8 0
BBX 8 8 0 -1
BITMAP
7C
C6
06
1C
30
66
FE
00
ENDCHAR
STARTCHAR U+0033
ENCODING 51
SWIDTH 480 0
DWIDTH 8 0
BBX 8 8 0 -1
BITMAP
7C
C6
06
3C
06
C6
7C
00
ENDCHAR
STARTCHAR U+0034
ENCODING 52
SWIDTH 480 0
DWIDTH 8 0
BBX 8 8 0 -1
BITMAP
1C
3C
6C
CC
FE
0C
1E
00
ENDCHAR
STARTCHAR U+0035
ENCODING 53
SWIDTH 480 0
DWIDTH 8 0
BBX 8 8 0 -1
BITMAP
FE
C0
C0
FC
06
C6
7C
00
ENDCHAR
STARTCHAR U+0036
ENCODING 54
SWIDTH 480 0
DWIDTH 8 0
BBX 8 8 0 -1
BITMAP
38
60
C0
FC
C6
C6
7C
00
ENDCHAR
STARTCHAR U+0037
ENCODING 55
SWIDTH 480 0
DWIDTH 8 0
BBX 8 8 0 -1
BITMAP
FE
C6
0C
18
30
30
30
00
ENDCHAR
STARTCHAR U+0038
ENCODING 56
SWIDTH 480 0
DWIDTH 8 0
BBX 8 8 0 -1
BITMAP
7C
C6
C6
7C
C6
C6
7C
00
ENDCHAR
STARTCHAR U+0039
ENCODING 57
SWIDTH 480 0
DWIDTH 8 0
BBX 8 8 0 -1
BITMAP
7C
C6
C6
7E
06
0C
78
00
ENDCHAR
STARTCHAR U+003A
ENCODING 58
SWIDTH 480 0
DWIDTH 8 0
BBX 8 8 0 -1
BITMAP
00
18
18
00
00
18
18
00
ENDCHAR
STARTCHAR U+003B
ENCODING 59
SWIDTH 480 0
DWIDTH 8 0
BBX 8 8 0 -1
BITMAP
00
18
18
00
00
18
18
30
ENDCHAR
STARTCHAR U+003C
ENCODING 60
SWIDTH 480 0
DWIDTH 8 0
BBX 8 8 0 -1
BITMAP
06
0C
18
30
18
0C
06
00
ENDCHAR
STARTCHAR U+003D
ENCODING 61
SWIDTH 480 0
DWIDTH 8 0
BBX 8 8 0 -1
BITMAP
00
00
7E
00
00
7E
00
00
ENDCHAR
STARTCHAR U+003E
ENCODING 62
SWIDTH 480 0
DWIDTH 8 0
BBX 8 8 0 -1
BITMAP
60
30
18
0C
18
30
60
00
ENDCHAR
STARTCHAR U+003F
ENCODING 63
SWIDTH 480 0
DWIDTH 8 0
BBX 8 8 0 -1
BITMAP
7C
C6
0C
18
18
00
18
00
ENDCHAR
STARTCHAR U+0040
ENCODING 64
SWIDTH 480 0
DWIDTH 8 0
BBX 8 8 0 -1
BITMAP
7C
C6
DE
DE
DE
C0
78
00
ENDCHAR
STARTCHAR U+0041
ENCODING 65
SWIDTH 480 0
DWIDTH 8 0
BBX 8 8 0 -1
BITMAP
38
6C
C6
FE
C6
C6
C6
00
ENDCHAR
STARTCHAR U+0042
ENCODING 66
SWIDTH 480 0
DWIDTH 8 0
BBX 8 8 0 -1
BITMAP
FC
66
66
7C
66
66
FC
00
ENDCHAR
STARTCHAR U+0043
ENCODING 67
SWIDTH 480 0
DWIDTH 8 0
BBX 8 8 0 -1
BITMAP
3C
66
C0
C0
C0
66
3C
00
ENDCHAR
STARTCHAR U+0044
ENCODING 68
SWIDTH 480 0
DWIDTH 8 0
BBX 8 8 0 -1
BITMAP
F8
6C
66
66
66
6C
F8
00
ENDCHAR
STARTCHAR U+0045
ENCODING 69
SWIDTH 480 0
DWIDTH 8 0
BBX 8 8 0 -1
BITMAP
FE
62
68
78
68
62
FE
00
ENDCHAR
STARTCHAR U+0046
ENCODING 70
SWIDTH 480 0
DWIDTH 8 0
BBX 8 8 0 -1
BITMAP
FE
62
68
78
68
60
F0
00
ENDCHAR
STARTCHAR U+0047
ENCODING 71
SWIDTH 480 0
DWIDTH 8 0
BBX 8 8 0 -1
BITMAP
3C
66
C0
C0
CE
66
3A
00
ENDCHAR
STARTCHAR U+0048
ENCODING 72
SWIDTH 480 0
DWIDTH 8 0
BBX 8 8 0 -1
BITMAP
C6
C6
C6
FE
C6
C6
C6
00
ENDCHAR
STARTCHAR U+0049
ENCODING 73
SWIDTH 480 0
DWIDTH 8 0
BBX 8 8 0 -1
BITMAP
3C
18
18
18
18
18
3C
00
ENDCHAR
STARTCHAR U+004A
ENCODING 74
SWIDTH 480 0
DWIDTH 8 0
BBX 8 8 0 -1
BITMAP
1E
0C
0C
0C
CC
CC
78
00
ENDCHAR
STARTCHAR U+004B
ENCODING 75
SWIDTH 480 0
DWIDTH 8 0
BBX 8 8 0 -1
BITMAP
E6
66
6C
78
6C
66
E6
00
ENDCHAR
STARTCHAR U+004C
ENCODING 76
SWIDTH 480 0
DWIDTH 8 0
BBX 8 8 0 -1
BITMAP
F0
60
60
60
62
66
FE
00
ENDCHAR
STARTCHAR U+004D
ENCODING 77
SWIDTH 480 0
DWIDTH 8 0
BBX 8 8 0 -1
BITMAP
C6
EE
FE
FE
D6
C6
C6
00
ENDCHAR
STARTCHAR U+004E
ENCODING 78
SWIDTH 480 0
DWIDTH 8 0
BBX 8 8 0 -1
BITMAP
C6
E6
F6
DE
CE
C6
C6
00
ENDCHAR
STARTCHAR U+004F
ENCODING 79
SWIDTH 480 0
DWIDTH 8 0
BBX 8 8 0 -1
BITMAP
7C
C6
C6
C6
C6
C6
7C
00
ENDCHAR
STARTCHAR U+0050
ENCODING 80
SWIDTH 480 0
DWIDTH 8 0
BBX 8 8 0 -1
BITMAP
FC
66
66
7C
60
60
F0
00
ENDCHAR
STARTCHAR U+0051
ENCODING 81
SWIDTH 480 0
DWIDTH 8 0
BBX 8 8 0 -1
BITMAP
7C
C6
C6
C6
C6
CE
7C
0E
ENDCHAR
STARTCHAR U+0052
ENCODING 82
SWIDTH 480 0
DWIDTH 8 0
BBX 8 8 0 -1
BITMAP
FC
66
66
7C
6C
66
E6
00
ENDCHAR
STARTCHAR U+0053
ENCODING 83
SWIDTH 480 0
DWIDTH 8 0
BBX 8 8 0 -1
BITMAP
3C
66
30
18
0C
66
3C
00
ENDCHAR
STARTCHAR U+0054
ENCODING 84
SWIDTH 480 0
DWIDTH 8 0
BBX 8 8 0 -1
BITMAP
7E
7E
5A
18
18
18
3C
00
ENDCHAR
STARTCHAR U+0055
ENCODING 85
SWIDTH 480 0
DWIDTH 8 0
BBX 8 8 0 -1
BITMAP
C6
C6
C6
C6
C6
C6
7C
00
ENDCHAR
STARTCHAR U+0056
ENCODING 86
SWIDTH 480 0
DWIDTH 8 0
BBX 8 8 0 -1
BITMAP
C6
C6
C6
C6
C6
6C
38
00
ENDCHAR
STARTCHAR U+0057
ENCODING 87
SWIDTH 480 0
DWIDTH 8 0
BBX 8 8 0 -1
BITMAP
C6
C6
C6
D6
D6
FE
6C
00
ENDCHAR
STARTCHAR U+0058
ENCODING 88
SWIDTH 480 0
DWIDTH 8 0
BBX 8 8 0 -1
BITMAP
C6
C6
6C
38
6C
C6
C6
00
ENDCHAR
STARTCHAR U+0059
ENCODING 89
SWIDTH 480 0
DWIDTH 8 0
BBX 8 8 0 -1
BITMAP
66
66
66
3C
18
18
3C
00
ENDCHAR
STARTCHAR U+005A
ENCODING 90
SWIDTH 480 0
DWIDTH 8 0
BBX 8 8 0 -1
BITMAP
FE
C6
8C
18
32
66
FE
00
ENDCHAR
STARTCHAR U+005B
ENCODING 91
SWIDTH 480 0
DWIDTH 8 0
BBX 8 8 0 -1
BITMAP
3C
30
30
30
30
30
3C
00
ENDCHAR
STARTCHAR U+005C
ENCODING 92
SWIDTH 480 0
DWIDTH 8 0
BBX 8 8 0 -1
BITMAP
C0
60
30
18
0C
06
02
00
ENDCHAR
STARTCHAR U+005D
ENCODING 93
SWIDTH 480 0
DWIDTH 8 0
BBX 8 8 0 -1
BITMAP
3C
0C
0C
0C
0C
0C
3C
00
ENDCHAR
STARTCHAR U+005E
ENCODING 94
SWIDTH 480 0
DWIDTH 8 0
BBX 8 8 0 -1
BITMAP
10
38
6C
C6
00
00
00
00
ENDCHAR
STARTCHAR U+005F
ENCODING 95
SWIDTH 480 0
DWIDTH 8 0
BBX 8 8 0 -1
BITMAP
00
00
00
00
00
00
00
FF
ENDCHAR
STARTCHAR U+0060
ENCODING 96
SWIDTH 480 0
DWIDTH 8 0
BBX 8 8 0 -1
BITMAP
30
18
0C
00
00
00
00
00
ENDCHAR
STARTCHAR U+0061
ENCODING 97
SWIDTH 480 0
DWIDTH 8 0
BBX 8 8 0 -1
BITMAP
00
00
78
0C
7C
CC
76
00
ENDCHAR
STARTCHAR U+0062
ENCODING 98
SWIDTH 480 0
DWIDTH 8 0
BBX 8 8 0 -1
BITMAP
E0
60
7C
66
66
66
DC
00
ENDCHAR
STARTCHAR U+0063
ENCODING 99
SWIDTH 480 0
DWIDTH 8 0
BBX 8 8 0 -1
BITMAP
00
00
7C
C6
C0
C6
7C
00
ENDCHAR
STARTCHAR U+0064
ENCODING 100
SWIDTH 480 0
DWIDTH 8 0
BBX 8 8 0 -1
BITMAP
1C
0C
7C
CC
CC
CC
76
00
ENDCHAR
STARTCHAR U+0065
ENCODING 101
SWIDTH 480 0
DWIDTH 8 0
BBX 8 8 0 -1
BITMAP
00
00
7C
C6
FE
C0
7C
00
ENDCHAR
STARTCHAR U+0066
ENCODING 102
SWIDTH 480 0
DWIDTH 8 0
BBX 8 8 0 -1
BITMAP
3C
66
60
F8
60
60
F0
00
ENDCHAR
STARTCHAR U+0067
ENCODING 103
SWIDTH 480 0
DWIDTH 8 0
BBX 8 8 0 -1
BITMAP
00
00
76
CC
CC
7C
0C
F8
ENDCHAR
STARTCHAR U+0068
ENCODING 104
SWIDTH 480 0
DWIDTH 8 0
BBX 8 8 0 -1
BITMAP
E0
60
6C
76
66
66
E6
00
ENDCHAR
STARTCHAR U+0069
ENCODING 105
SWIDTH 480 0
DWIDTH 8 0
BBX 8 8 0 -1
BITMAP
18
00
38
18
18
18
3C
00
ENDCHAR
STARTCHAR U+006A
ENCODING 106
SWIDTH 480 0
DWIDTH 8 0
BBX 8 8 0 -1
BITMAP
06
00
06
06
06
66
66
3C
ENDCHAR
STARTCHAR U+006B
ENCODING 107
SWIDTH 480 0
DWIDTH 8 0
BBX 8 8 0 -1
BITMAP
E0
60
66
6C
78
6C
E6
00
ENDCHAR
STARTCHAR U+006C
ENCODING 108
SWIDTH 480 0
DWIDTH 8 0
BBX 8 8 0 -1
BITMAP
38
18
18
18
18
18
3C
00
ENDCHAR
STARTCHAR U+006D
ENCODING 109
SWIDTH 480 0
DWIDTH 8 0
BBX 8 8 0 -1
BITMAP
00
00
EC
FE
D6
D6
D6
00
ENDCHAR
STARTCHAR U+006E
ENCODING 110
SWIDTH 480 0
DWIDTH 8 0
BBX 8 8 0 -1
BITMAP
00
00
DC
66
66
66
66
00
ENDCHAR
STARTCHAR U+006F
ENCODING 111
SWIDTH 480 0
DWIDTH 8 0
BBX 8 8 0 -1
BITMAP
00
00
7C
C6
C6
C6
7C
00
ENDCHAR
STARTCHAR U+0070
ENCODING 112
SWIDTH 480 0
DWIDTH 8 0
BBX 8 8 0 -1
BITMAP
00
00
DC
66
66
7C
60
F0
ENDCHAR
STARTCHAR U+0071
ENCODING 113
SWIDTH 480 0
DWIDTH 8 0
BBX 8 8 0 -1
BITMAP
00
00
76
CC
CC
7C
0C
1E
ENDCHAR
STARTCHAR U+0072
ENCODING 114
SWIDTH 480 0
DWIDTH 8 0
BBX 8 8 0 -1
BITMAP
00
00
DC
76
60
60
F0
00
ENDCHAR
STARTCHAR U+0073
ENCODING 115
SWIDTH 480 0
DWIDTH 8 0
BBX 8 8 0 -1
BITMAP
00
00
7E
C0
7C
06
FC
00
ENDCHAR
STARTCHAR U+0074
ENCODING 116
SWIDTH 480 0
DWIDTH 8 0
BBX 8 8 0 -1
BITMAP
30
30
FC
30
30
36
1C
00
ENDCHAR
STARTCHAR U+0075
ENCODING 117
SWIDTH 480 0
DWIDTH 8 0
BBX 8 8 0 -1
BITMAP
00
00
CC
CC
CC
CC
76
00
ENDCHAR
STARTCHAR U+0076
ENCODING 118
SWIDTH 480 0
DWIDTH 8 0
BBX 8 8 0 -1
BITMAP
00
00
C6
C6
C6
6C
38
00
ENDCHAR
STARTCHAR U+0077
ENCODING 119
SWIDTH 480 0
DWIDTH 8 0
BBX 8 8 0 -1
BITMAP
00
00
C6
D6
D6
FE
6C
00
ENDCHAR
STARTCHAR U+0078
ENCODING 120
SWIDTH 480 0
DWIDTH 8 0
BBX 8 8 0 -1
BITMAP
00
00
C6
6C
38
6C
C6
00
ENDCHAR
STARTCHAR U+0079
ENCODING 121
SWIDTH 480 0
DWIDTH 8 0
BBX 8 8 0 -1
BITMAP
00
00
C6
C6
C6
7E
06
FC
ENDCHAR
STARTCHAR U+007A
ENCODING 122
SWIDTH 480 0
DWIDTH 8 0
BBX 8 8 0 -1
BITMAP
00
00
7E
4C
18
32
7E
00
ENDCHAR
STARTCHAR U+007B
ENCODING 123
SWIDTH 480 0
DWIDTH 8 0
BBX 8 8 0 -1
BITMAP
0E
18
18
70
18
18
0E
00
ENDCHAR
STARTCHAR U+007C
ENCODING 124
SWIDTH 480 0
DWIDTH 8 0
BBX 8 8 0 -1
BITMAP
18
18
18
18
18
18
18
00
ENDCHAR
STARTCHAR U+007D
ENCODING 125
SWIDTH 480 0
DWIDTH 8 0
BBX 8 8 0 -1
BITMAP
70
18
18
0E
18
18
70
00
ENDCHAR
STARTCHAR U+007E
ENCODING 126
SWIDTH 480 0
DWIDTH 8 0
BBX 8 8 0 -1
BITMAP
76
DC
00
00
00
00
00
00
ENDCHAR
STARTCHAR U+00A0
ENCODING 160
SWIDTH 480 0
DWIDTH 8 0
BBX 8 8 0 -1
BITMAP
00
00
00
00
00
00
00
00
ENDCHAR
STARTCHAR U+00A1
ENCODING 161
SWIDTH 480 0
DWIDTH 8 0
BBX 8 8 0 -1
BITMAP
18
00
18
18
3C
3C
18
00
ENDCHAR
STARTCHAR U+00A2
ENCODING 162
SWIDTH 480 0
DWIDTH 8 0
BBX 8 8 0 -1
BITMAP
18
18
7E
C0
C0
7E
18
18
ENDCHAR
STARTCHAR U+00A3
ENCODING 163
SWIDTH 480 0
DWIDTH 8 0
BBX 8 8 0 -1
BITMAP
38
6C
64
F0
60
66
FC
00
ENDCHAR
STARTCHAR U+00A4
ENCODING 164
SWIDTH 480 0
DWIDTH 8 0
BBX 8 8 0 -1
BITMAP
00
C6
7C
C6
C6
7C
C6
00
ENDCHAR
STARTCHAR U+00A5
ENCODING 165
SWIDTH 480 0
DWIDTH 8 0
BBX 8 8 0 -1
BITMAP
66
66
3C
7E
18
7E
18
18
ENDCHAR
STARTCHAR U+00A6
ENCODING 166
SWIDTH 480 0
DWIDTH 8 0
BBX 8 8 0 -1
BITMAP
18
18
18
00
00
18
18
18
ENDCHAR
STARTCHAR U+00A7
ENCODING 167
SWIDTH 480 0
DWIDTH 8 0
BBX 8 8 0 -1
BITMAP
3E
61
3C
66
66
3C
86
7C
ENDCHAR
STARTCHAR U+00A8
ENCODING 168
SWIDTH 480 0
DWIDTH 8 0
BBX 8 8 0 -1
BITMAP
00
C6
00
00
00
00
00
00
ENDCHAR
STARTCHAR U+00A9
ENCODING 169
SWIDTH 480 0
DWIDTH 8 0
BBX 8 8 0 -1
BITMAP
7E
81
9D
A1
A1
9D
81
7E
ENDCHAR
STARTCHAR U+00AA
ENCODING 170
SWIDTH 480 0
DWIDTH 8 0
BBX 8 8 0 -1
BITMAP
3C
6C
6C
3E
00
7E
00
00
ENDCHAR
STARTCHAR U+00AB
ENCODING 171
SWIDTH 480 0
DWIDTH 8 0
BBX 8 8 0 -1
BITMAP
00
33
66
CC
66
33
00
00
ENDCHAR
STARTCHAR U+00AC
ENCODING 172
SWIDTH 480 0
DWIDTH 8 0
BBX 8 8 0 -1
BITMAP
00
00
00
FE
06
06
00
00
ENDCHAR
STARTCHAR U+00AD
ENCODING 173
SWIDTH 480 0
DWIDTH 8 0
BBX 8 8 0 -1
BITMAP
00
00
00
7E
00
00
00
00
ENDCHAR
STARTCHAR U+00AE
ENCODING 174
SWIDTH 480 0
DWIDTH 8 0
BBX 8 8 0 -1
BITMAP
7E
81
B9
A5
B9
A5
81
7E
ENDCHAR
STARTCHAR U+00AF
ENCODING 175
SWIDTH 480 0
DWIDTH 8 0
BBX 8 8 0 -1
BITMAP
FF
00
00
00
00
00
00
00
ENDCHAR
STARTCHAR U+00B0
ENCODING 176
SWIDTH 480 0
DWIDTH 8 0
BBX 8 8 0 -1
BITMAP
38
6C
6C
38
00
00
00
00
ENDCHAR
STARTCHAR U+00B1
ENCODING 177
SWIDTH 480 0
DWIDTH 8 0
BBX 8 8 0 -1
BITMAP
18
18
7E
18
18
00
7E
00
ENDCHAR
STARTCHAR U+00B2
ENCODING 178
SWIDTH 480 0
DWIDTH 8 0
BBX 8 8 0 -1
BITMAP
78
0C
18
30
7C
00
00
00
ENDCHAR
STARTCHAR U+00B3
ENCODING 179
SWIDTH 480 0
DWIDTH 8 0
BBX 8 8 0 -1
BITMAP
78
0C
38
0C
78
00
00
00
ENDCHAR
STARTCHAR U+00B4
ENCODING 180
SWIDTH 480 0
DWIDTH 8 0
BBX 8 8 0 -1
BITMAP
0C
18
30
00
00
00
00
00
ENDCHAR
STARTCHAR U+00B5
ENCODING 181
SWIDTH 480 0
DWIDTH 8 0
BBX 8 8 0 -1
BITMAP
00
00
66
66
66
66
7C
C0
ENDCHAR
STARTCHAR U+00B6
ENCODING 182
SWIDTH 480 0
DWIDTH 8 0
BBX 8 8 0 -1
BITMAP
7F
DB
DB
7B
1B
1B
1B
00
ENDCHAR
STARTCHAR U+00B7
ENCODING 183
SWIDTH 480 0
DWIDTH 8 0
BBX 8 8 0 -1
BITMAP
00
00
00
18
00
00
00
00
ENDCHAR
STARTCHAR U+00B8
ENCODING 184
SWIDTH 480 0
DWIDTH 8 0
BBX 8 8 0 -1
BITMAP
00
00
00
00
00
18
0C
38
ENDCHAR
STARTCHAR U+00B9
ENCODING 185
SWIDTH 480 0
DWIDTH 8 0
BBX 8 8 0 -1
BITMAP
18
38
18
18
3C
00
00
00
ENDCHAR
STARTCHAR U+00BA
ENCODING 186
SWIDTH 480 0
DWIDTH 8 0
BBX 8 8 0 -1
BITMAP
38
6C
6C
38
00
7C
00
00
ENDCHAR
STARTCHAR U+00BB
ENCODING 187
SWIDTH 480 0
DWIDTH 8 0
BBX 8 8 0 -1
BITMAP
00
CC
66
33
66
CC
00
00
ENDCHAR
STARTCHAR U+00BC
ENCODING 188
SWIDTH 480 0
DWIDTH 8 0
BBX 8 8 0 -1
BITMAP
63
E6
6C
7A
36
6A
DF
06
ENDCHAR
STARTCHAR U+00BD
ENCODING 189
SWIDTH 480 0
DWIDTH 8 0
BBX 8 8 0 -1
BITMAP
63
E6
6C
7E
33
66
CC
0F
ENDCHAR
STARTCHAR U+00BE
ENCODING 190
SWIDTH 480 0
DWIDTH 8 0
BBX 8 8 0 -1
BITMAP
E1
32
E4
3A
F6
2A
5F
86
ENDCHAR
STARTCHAR U+00BF
ENCODING 191
SWIDTH 480 0
DWIDTH 8 0
BBX 8 8 0 -1
BITMAP
18
00
18
18
30
63
3E
00
ENDCHAR
STARTCHAR U+00C0
ENCODING 192
SWIDTH 480 0
DWIDTH 8 0
BBX 8 8 0 -1
BITMAP
18
0C
38
6C
C6
FE
C6
00
ENDCHAR
STARTCHAR U+00C1
ENCODING 193
SWIDTH 480 0
DWIDTH 8 0
BBX 8 8 0 -1
BITMAP
30
60
38
6C
C6
FE
C6
00
ENDCHAR
STARTCHAR U+00C2
ENCODING 194
SWIDTH 480 0
DWIDTH 8 0
BBX 8 8 0 -1
BITMAP
7C
82
38
6C
C6
FE
C6
00
ENDCHAR
STARTCHAR U+00C3
ENCODING 195
SWIDTH 480 0
DWIDTH 8 0
BBX 8 8 0 -1
BITMAP
76
DC
38
6C
C6
FE
C6
00
ENDCHAR
STARTCHAR U+00C4
ENCODING 196
SWIDTH 480 0
DWIDTH 8 0
BBX 8 8 0 -1
BITMAP
C6
38
6C
C6
FE
C6
C6
00
ENDCHAR
STARTCHAR U+00C5
ENCODING 197
SWIDTH 480 0
DWIDTH 8 0
BBX 8 8 0 -1
BITMAP
38
00
7C
C6
FE
C6
C6
00
ENDCHAR
STARTCHAR U+00C6
ENCODING 198
SWIDTH 480 0
DWIDTH 8 0
BBX 8 8 0 -1
BITMAP
3E
6C
CC
FE
CC
CC
CE
00
ENDCHAR
STARTCHAR U+00C7
ENCODING 199
SWIDTH 480 0
DWIDTH 8 0
BBX 8 8 0 -1
BITMAP
7C
C6
C0
C0
C6
7C
18
30
ENDCHAR
STARTCHAR U+00C8
ENCODING 200
SWIDTH 480 0
DWIDTH 8 0
BBX 8 8 0 -1
BITMAP
30
18
FE
C0
FC
C0
FE
00
ENDCHAR
STARTCHAR U+00C9
ENCODING 201
SWIDTH 480 0
DWIDTH 8 0
BBX 8 8 0 -1
BITMAP
18
30
FE
C0
F8
C0
FE
00
ENDCHAR
STARTCHAR U+00CA
ENCODING 202
SWIDTH 480 0
DWIDTH 8 0
BBX 8 8 0 -1
BITMAP
7C
82
FE
C0
FC
C0
FE
00
ENDCHAR
STARTCHAR U+00CB
ENCODING 203
SWIDTH 480 0
DWIDTH 8 0
BBX 8 8 0 -1
BITMAP
C6
00
FE
C0
FC
C0
FE
00
ENDCHAR
STARTCHAR U+00CC
ENCODING 204
SWIDTH 480 0
DWIDTH 8 0
BBX 8 8 0 -1
BITMAP
30
18
3C
18
18
18
3C
00
ENDCHAR
STARTCHAR U+00CD
ENCODING 205
SWIDTH 480 0
DWIDTH 8 0
BBX 8 8 0 -1
BITMAP
0C
18
3C
18
18
18
3C
00
ENDCHAR
STARTCHAR U+00CE
ENCODING 206
SWIDTH 480 0
DWIDTH 8 0
BBX 8 8 0 -1
BITMAP
3C
42
3C
18
18
18
3C
00
ENDCHAR
STARTCHAR U+00CF
ENCODING 207
SWIDTH 480 0
DWIDTH 8 0
BBX 8 8 0 -1
BITMAP
66
00
3C
18
18
18
3C
00
ENDCHAR
STARTCHAR U+00D0
ENCODING 208
SWIDTH 480 0
DWIDTH 8 0
BBX 8 8 0 -1
BITMAP
F8
6C
66
F6
66
6C
F8
00
ENDCHAR
STARTCHAR U+00D1
ENCODING 209
SWIDTH 480 0
DWIDTH 8 0
BBX 8 8 0 -1
BITMAP
76
DC
00
E6
F6
DE
CE
00
ENDCHAR
STARTCHAR U+00D2
ENCODING 210
SWIDTH 480 0
DWIDTH 8 0
BBX 8 8 0 -1
BITMAP
0C
06
38
6C
C6
6C
38
00
ENDCHAR
STARTCHAR U+00D3
ENCODING 211
SWIDTH 480 0
DWIDTH 8 0
BBX 8 8 0 -1
BITMAP
30
60
38
6C
C6
6C
38
00
ENDCHAR
STARTCHAR U+00D4
ENCODING 212
SWIDTH 480 0
DWIDTH 8 0
BBX 8 8 0 -1
BITMAP
7C
82
38
6C
C6
6C
38
00
ENDCHAR
STARTCHAR U+00D5
ENCODING 213
SWIDTH 480 0
DWIDTH 8 0
BBX 8 8 0 -1
BITMAP
76
DC
38
6C
C6
6C
38
00
ENDCHAR
STARTCHAR U+00D6
ENCODING 214
SWIDTH 480 0
DWIDTH 8 0
BBX 8 8 0 -1
BITMAP
C6
38
6C
C6
C6
6C
38
00
ENDCHAR
STARTCHAR U+00D7
ENCODING 215
SWIDTH 480 0
DWIDTH 8 0
BBX 8 8 0 -1
BITMAP
00
C6
6C
38
6C
C6
00
00
ENDCHAR
STARTCHAR U+00D8
ENCODING 216
SWIDTH 480 0
DWIDTH 8 0
BBX 8 8 0 -1
BITMAP
7C
C6
CE
D6
E6
C6
7C
00
ENDCHAR
STARTCHAR U+00D9
ENCODING 217
SWIDTH 480 0
DWIDTH 8 0
BBX 8 8 0 -1
BITMAP
60
30
C6
C6
C6
C6
7C
00
ENDCHAR
STARTCHAR U+00DA
ENCODING 218
SWIDTH 480 0
DWIDTH 8 0
BBX 8 8 0 -1
BITMAP
18
30
C6
C6
C6
C6
7C
00
ENDCHAR
STARTCHAR U+00DB
ENCODING 219
SWIDTH 480 0
DWIDTH 8 0
BBX 8 8 0 -1
BITMAP
7C
82
00
C6
C6
C6
7C
00
ENDCHAR
STARTCHAR U+00DC
ENCODING 220
SWIDTH 480 0
DWIDTH 8 0
BBX 8 8 0 -1
BITMAP
C6
00
C6
C6
C6
C6
7C
00
ENDCHAR
STARTCHAR U+00DD
ENCODING 221
SWIDTH 480 0
DWIDTH 8 0
BBX 8 8 0 -1
BITMAP
0C
18
66
66
3C
18
3C
00
ENDCHAR
STARTCHAR U+00DE
ENCODING 222
SWIDTH 480 0
DWIDTH 8 0
BBX 8 8 0 -1
BITMAP
F0
60
7C
66
7C
60
F0
00
ENDCHAR
STARTCHAR U+00DF
ENCODING 223
SWIDTH 480 0
DWIDTH 8 0
BBX 8 8 0 -1
BITMAP
78
CC
CC
D8
CC
C6
CC
00
ENDCHAR
STARTCHAR U+00E0
ENCODING 224
SWIDTH 480 0
DWIDTH 8 0
BBX 8 8 0 -1
BITMAP
30
18
78
0C
7C
CC
76
00
ENDCHAR
STARTCHAR U+00E1
ENCODING 225
SWIDTH 480 0
DWIDTH 8 0
BBX 8 8 0 -1
BITMAP
18
30
78
0C
7C
CC
76
00
ENDCHAR
STARTCHAR U+00E2
ENCODING 226
SWIDTH 480 0
DWIDTH 8 0
BBX 8 8 0 -1
BITMAP
7C
82
78
0C
7C
CC
76
00
ENDCHAR
STARTCHAR U+00E3
ENCODING 227
SWIDTH 480 0
DWIDTH 8 0
BBX 8 8 0 -1
BITMAP
76
DC
7C
06
7E
C6
7E
00
ENDCHAR
STARTCHAR U+00E4
ENCODING 228
SWIDTH 480 0
DWIDTH 8 0
BBX 8 8 0 -1
BITMAP
C6
00
78
0C
7C
CC
76
00
ENDCHAR
STARTCHAR U+00E5
ENCODING 229
SWIDTH 480 0
DWIDTH 8 0
BBX 8 8 0 -1
BITMAP
38
00
78
0C
7C
CC
76
00
ENDCHAR
STARTCHAR U+00E6
ENCODING 230
SWIDTH 480 0
DWIDTH 8 0
BBX 8 8 0 -1
BITMAP
00
00
7E
18
7E
D8
7E
00
ENDCHAR
STARTCHAR U+00E7
ENCODING 231
SWIDTH 480 0
DWIDTH 8 0
BBX 8 8 0 -1
BITMAP
00
00
7C
C0
C0
7C
30
60
ENDCHAR
STARTCHAR U+00E8
ENCODING 232
SWIDTH 480 0
DWIDTH 8 0
BBX 8 8 0 -1
BITMAP
30
18
7C
C6
FE
C0
7C
00
ENDCHAR
STARTCHAR U+00E9
ENCODING 233
SWIDTH 480 0
DWIDTH 8 0
BBX 8 8 0 -1
BITMAP
0C
18
7C
C6
FE
C0
7C
00
ENDCHAR
STARTCHAR U+00EA
ENCODING 234
SWIDTH 480 0
DWIDTH 8 0
BBX 8 8 0 -1
BITMAP
7C
82
7C
C6
FE
C0
7C
00
ENDCHAR
STARTCHAR U+00EB
ENCODING 235
SWIDTH 480 0
DWIDTH 8 0
BBX 8 8 0 -1
BITMAP
C6
00
7C
C6
FE
C0
7C
00
ENDCHAR
STARTCHAR U+00EC
ENCODING 236
SWIDTH 480 0
DWIDTH 8 0
BBX 8 8 0 -1
BITMAP
30
18
00
38
18
18
3C
00
ENDCHAR
STARTCHAR U+00ED
ENCODING 237
SWIDTH 480 0
DWIDTH 8 0
BBX 8 8 0 -1
BITMAP
0C
18
00
38
18
18
3C
00
ENDCHAR
STARTCHAR U+00EE
ENCODING 238
SWIDTH 480 0
DWIDTH 8 0
BBX 8 8 0 -1
BITMAP
7C
82
38
18
18
18
3C
00
ENDCHAR
STARTCHAR U+00EF
ENCODING 239
SWIDTH 480 0
DWIDTH 8 0
BBX 8 8 0 -1
BITMAP
66
00
38
18
18
18
3C
00
ENDCHAR
STARTCHAR U+00F0
ENCODING 240
SWIDTH 480 0
DWIDTH 8 0
BBX 8 8 0 -1
BITMAP
30
7E
0C
7C
CC
CC
78
00
ENDCHAR
STARTCHAR U+00F1
ENCODING 241
SWIDTH 480 0
DWIDTH 8 0
BBX 8 8 0 -1
BITMAP
76
DC
00
DC
66
66
66
00
ENDCHAR
STARTCHAR U+00F2
ENCODING 242
SWIDTH 480 0
DWIDTH 8 0
BBX 8 8 0 -1
BITMAP
30
18
7C
C6
C6
C6
7C
00
ENDCHAR
STARTCHAR U+00F3
ENCODING 243
SWIDTH 480 0
DWIDTH 8 0
BBX 8 8 0 -1
BITMAP
0C
18
7C
C6
C6
C6
7C
00
ENDCHAR
STARTCHAR U+00F4
ENCODING 244
SWIDTH 480 0
DWIDTH 8 0
BBX 8 8 0 -1
BITMAP
7C
82
7C
C6
C6
C6
7C
00
ENDCHAR
STARTCHAR U+00F5
ENCODING 245
SWIDTH 480 0
DWIDTH 8 0
BBX 8 8 0 -1
BITMAP
76
DC
7C
C6
C6
C6
7C
00
ENDCHAR
STARTCHAR U+00F6
ENCODING 246
SWIDTH 480 0
DWIDTH 8 0
BBX 8 8 0 -1
BITMAP
C6
00
7C
C6
C6
C6
7C
00
ENDCHAR
STARTCHAR U+00F7
ENCODING 247
SWIDTH 480 0
DWIDTH 8 0
BBX 8 8 0 -1
BITMAP
00
18
00
7E
00
18
00
00
ENDCHAR
STARTCHAR U+00F8
ENCODING 248
SWIDTH 480 0
DWIDTH 8 0
BBX 8 8 0 -1
BITMAP
00
00
7C
CE
D6
E6
7C
00
ENDCHAR
STARTCHAR U+00F9
ENCODING 249
SWIDTH 480 0
DWIDTH 8 0
BBX 8 8 0 -1
BITMAP
60
30
CC
CC
CC
CC
76
00
ENDCHAR
STARTCHAR U+00FA
ENCODING 250
SWIDTH 480 0
DWIDTH 8 0
BBX 8 8 0 -1
BITMAP
18
30
CC
CC
CC
CC
76
00
ENDCHAR
STARTCHAR U+00FB
ENCODING 251
SWIDTH 480 0
DWIDTH 8 0
BBX 8 8 0 -1
BITMAP
78
84
00
CC
CC
CC
76
00
ENDCHAR
STARTCHAR U+00FC
ENCODING 252
SWIDTH 480 0
DWIDTH 8 0
BBX 8 8 0 -1
BITMAP
CC
00
CC
CC
CC
CC
76
00
ENDCHAR
STARTCHAR U+00FD
ENCODING 253
SWIDTH 480 0
DWIDTH 8 0
BBX 8 8 0 -1
BITMAP
18
30
C6
C6
C6
7E
06
FC
ENDCHAR
STARTCHAR U+00FE
ENCODING 254
SWIDTH 480 0
DWIDTH 8 0
BBX 8 8 0 -1
BITMAP
E0
60
7C
66
66
7C
60
F0
ENDCHAR
STARTCHAR U+00FF
ENCODING 255
SWIDTH 480 0
DWIDTH 8 0
BBX 8 8 0 -1
BITMAP
C6
00
C6
C6
C6
7E
06
FC
ENDCHAR
STARTCHAR U+0110
ENCODING 272
SWIDTH 480 0
DWIDTH 8 0
BBX 8 8 0 -1
BITMAP
F8
6C
66
F6
66
6C
F8
00
ENDCHAR
STARTCHAR U+011E
ENCODING 286
SWIDTH 480 0
DWIDTH 8 0
BBX 8 8 0 -1
BITMAP
66
3C
66
C0
CE
C6
7C
00
ENDCHAR
STARTCHAR U+011F
ENCODING 287
SWIDTH 480 0
DWIDTH 8 0
BBX 8 8 0 -1
BITMAP
6C
38
76
CC
CC
7C
0C
F8
ENDCHAR
STARTCHAR U+0130
ENCODING 304
SWIDTH 480 0
DWIDTH 8 0
BBX 8 8 0 -1
BITMAP
18
00
3C
18
18
18
3C
00
ENDCHAR
STARTCHAR U+0131
ENCODING 305
SWIDTH 480 0
DWIDTH 8 0
BBX 8 8 0 -1
BITMAP
00
00
38
18
18
18
3C
00
ENDCHAR
STARTCHAR U+0152
ENCODING 338
SWIDTH 480 0
DWIDTH 8 0
BBX 8 8 0 -1
BITMAP
00
6E
D8
D8
DC
D8
D8
6E
ENDCHAR
STARTCHAR U+0153
ENCODING 339
SWIDTH 480 0
DWIDTH 8 0
BBX 8 8 0 -1
BITMAP
00
00
00
6E
D8
DE
D8
6E
ENDCHAR
STARTCHAR U+015E
ENCODING 350
SWIDTH 480 0
DWIDTH 8 0
BBX 8 8 0 -1
BITMAP
7C
C6
70
1C
C6
7C
18
30
ENDCHAR
STARTCHAR U+015F
ENCODING 351
SWIDTH 480 0
DWIDTH 8 0
BBX 8 8 0 -1
BITMAP
00
7E
C0
7C
06
FC
30
60
ENDCHAR
STARTCHAR U+0160
ENCODING 352
SWIDTH 480 0
DWIDTH 8 0
BBX 8 8 0 -1
BITMAP
6C
38
7C
C0
7C
06
C6
7C
ENDCHAR
STARTCHAR U+0161
ENCODING 353
SWIDTH 480 0
DWIDTH 8 0
BBX 8 8 0 -1
BITMAP
00
6C
38
7C
C0
7C
06
FC
ENDCHAR
STARTCHAR U+0178
ENCODING 376
SWIDTH 480 0
DWIDTH 8 0
BBX 8 8 0 -1
BITMAP
66
00
66
66
3C
18
18
3C
ENDCHAR
STARTCHAR U+017D
ENCODING 381
SWIDTH 480 0
DWIDTH 8 0
BBX 8 8 0 -1
BITMAP
6C
38
FE
8C
18
32
66
FE
ENDCHAR
STARTCHAR U+017E
ENCODING 382
SWIDTH 480 0
DWIDTH 8 0
BBX 8 8 0 -1
BITMAP
6C
38
00
FE
8C
38
62
FE
ENDCHAR
STARTCHAR U+0192
ENCODING 402
SWIDTH 480 0
DWIDTH 8 0
BBX 8 8 0 -1
BITMAP
00
1C
36
30
FC
30
30
78
ENDCHAR
STARTCHAR U+02C9
ENCODING 713
SWIDTH 480 0
DWIDTH 8 0
BBX 8 8 0 -1
BITMAP
FF
00
00
00
00
00
00
00
ENDCHAR
STARTCHAR U+02DC
ENCODING 732
SWIDTH 480 0
DWIDTH 8 0
BBX 8 8 0 -1
BITMAP
00
76
DC
00
00
00
00
00
ENDCHAR
STARTCHAR U+0391
ENCODING 913
SWIDTH 480 0
DWIDTH 8 0
BBX 8 8 0 -1
BITMAP
38
6C
C6
FE
C6
C6
C6
00
ENDCHAR
STARTCHAR U+0392
ENCODING 914
SWIDTH 480 0
DWIDTH 8 0
BBX 8 8 0 -1
BITMAP
FC
66
66
7C
66
66
FC
00
ENDCHAR
STARTCHAR U+0394
ENCODING 916
SWIDTH 480 0
DWIDTH 8 0
BBX 8 8 0 -1
BITMAP
00
00
00
00
FF
00
00
00
ENDCHAR
STARTCHAR U+0395
ENCODING 917
SWIDTH 480 0
DWIDTH 8 0
BBX 8 8 0 -1
BITMAP
FE
62
68
78
68
62
FE
00
ENDCHAR
STARTCHAR U+0396
ENCODING 918
SWIDTH 480 0
DWIDTH 8 0
BBX 8 8 0 -1
BITMAP
FE
C6
8C
18
32
66
FE
00
ENDCHAR
STARTCHAR U+0397
ENCODING 919
SWIDTH 480 0
DWIDTH 8 0
BBX 8 8 0 -1
BITMAP
C6
C6
C6
FE
C6
C6
C6
00
ENDCHAR
STARTCHAR U+0399
ENCODING 921
SWIDTH 480 0
DWIDTH 8 0
BBX 8 8 0 -1
BITMAP
3C
18
18
18
18
18
3C
00
ENDCHAR
STARTCHAR U+039A
ENCODING 922
SWIDTH 480 0
DWIDTH 8 0
BBX 8 8 0 -1
BITMAP
E6
66
6C
78
6C
66
E6
00
ENDCHAR
STARTCHAR U+039C
ENCODING 924
SWIDTH 480 0
DWIDTH 8 0
BBX 8 8 0 -1
BITMAP
C6
EE
FE
FE
D6
C6
C6
00
ENDCHAR
STARTCHAR U+039D
ENCODING 925
SWIDTH 480 0
DWIDTH 8 0
BBX 8 8 0 -1
BITMAP
C6
E6
F6
DE
CE
C6
C6
00
ENDCHAR
STARTCHAR U+039F
ENCODING 927
SWIDTH 480 0
DWIDTH 8 0
BBX 8 8 0 -1
BITMAP
7C
C6
C6
C6
C6
C6
7C
00
ENDCHAR
STARTCHAR U+03A1
ENCODING 929
SWIDTH 480 0
DWIDTH 8 0
BBX 8 8 0 -1
BITMAP
FC
66
66
7C
60
60
F0
00
ENDCHAR
STARTCHAR U+03A4
ENCODING 932
SWIDTH 480 0
DWIDTH 8 0
BBX 8 8 0 -1
BITMAP
7E
7E
5A
18
18
18
3C
00
ENDCHAR
STARTCHAR U+03A7
ENCODING 935
SWIDTH 480 0
DWIDTH 8 0
BBX 8 8 0 -1
BITMAP
C6
C6
6C
38
6C
C6
C6
00
ENDCHAR
STARTCHAR U+03A9
ENCODING 937
SWIDTH 480 0
DWIDTH 8 0
BBX 8 8 0 -1
BITMAP
18
18
18
18
F8
00
00
00
ENDCHAR
STARTCHAR U+03BC
ENCODING 956
SWIDTH 480 0
DWIDTH 8 0
BBX 8 8 0 -1
BITMAP
00
00
66
66
66
66
7C
C0
ENDCHAR
STARTCHAR U+03C0
ENCODING 960
SWIDTH 480 0
DWIDTH 8 0
BBX 8 8 0 -1
BITMAP
00
FE
00
FE
00
FE
00
00
ENDCHAR
STARTCHAR U+0401
ENCODING 1025
SWIDTH 480 0
DWIDTH 8 0
BBX 8 8 0 -1
BITMAP
C6
00
FE
C0
FC
C0
FE
00
ENDCHAR
STARTCHAR U+0405
ENCODING 1029
SWIDTH 480 0
DWIDTH 8 0
BBX 8 8 0 -1
BITMAP
3C
66
30
18
0C
66
3C
00
ENDCHAR
STARTCHAR U+0406
ENCODING 1030
SWIDTH 480 0
DWIDTH 8 0
BBX 8 8 0 -1
BITMAP
3C
18
18
18
18
18
3C
00
ENDCHAR
STARTCHAR U+0407
ENCODING 1031
SWIDTH 480 0
DWIDTH 8 0
BBX 8 8 0 -1
BITMAP
66
00
3C
18
18
18
3C
00
ENDCHAR
STARTCHAR U+0408
ENCODING 1032
SWIDTH 480 0
DWIDTH 8 0
BBX 8 8 0 -1
BITMAP
1E
0C
0C
0C
CC
CC
78
00
ENDCHAR
STARTCHAR U+0410
ENCODING 1040
SWIDTH 480 0
DWIDTH 8 0
BBX 8 8 0 -1
BITMAP
38
6C
C6
FE
C6
C6
C6
00
ENDCHAR
STARTCHAR U+0412
ENCODING 1042
SWIDTH 480 0
DWIDTH 8 0
BBX 8 8 0 -1
BITMAP
FC
66
66
7C
66
66
FC
00
ENDCHAR
STARTCHAR U+0415
ENCODING 1045
SWIDTH 480 0
DWIDTH 8 0
BBX 8 8 0 -1
BITMAP
FE
62
68
78
68
62
FE
00
ENDCHAR
STARTCHAR U+041A
ENCODING 1050
SWIDTH 480 0
DWIDTH 8 0
BBX 8 8 0 -1
BITMAP
E6
66
6C
78
6C
66
E6
00
ENDCHAR
STARTCHAR U+041C
ENCODING 1052
SWIDTH 480 0
DWIDTH 8 0
BBX 8 8 0 -1
BITMAP
C6
EE
FE
FE
D6
C6
C6
00
ENDCHAR
STARTCHAR U+041D
ENCODING 1053
SWIDTH 480 0
DWIDTH 8 0
BBX 8 8 0 -1
BITMAP
C6
C6
C6
FE
C6
C6
C6
00
ENDCHAR
STARTCHAR U+041E
ENCODING 1054
SWIDTH 480 0
DWIDTH 8 0
BBX 8 8 0 -1
BITMAP
7C
C6
C6
C6
C6
C6
7C
00
ENDCHAR
STARTCHAR U+0420
ENCODING 1056
SWIDTH 480 0
DWIDTH 8 0
BBX 8 8 0 -1
BITMAP
FC
66
66
7C
60
60
F0
00
ENDCHAR
STARTCHAR U+0421
ENCODING 1057
SWIDTH 480 0
DWIDTH 8 0
BBX 8 8 0 -1
BITMAP
3C
66
C0
C0
C0
66
3C
00
ENDCHAR
STARTCHAR U+0422
ENCODING 1058
SWIDTH 480 0
DWIDTH 8 0
BBX 8 8 0 -1
BITMAP
7E
7E
5A
18
18
18
3C
00
ENDCHAR
STARTCHAR U+0425
ENCODING 1061
SWIDTH 480 0
DWIDTH 8 0
BBX 8 8 0 -1
BITMAP
C6
C6
6C
38
6C
C6
C6
00
ENDCHAR
STARTCHAR U+0430
ENCODING 1072
SWIDTH 480 0
DWIDTH 8 0
BBX 8 8 0 -1
BITMAP
00
00
78
0C
7C
CC
76
00
ENDCHAR
STARTCHAR U+0435
ENCODING 1077
SWIDTH 480 0
DWIDTH 8 0
BBX 8 8 0 -1
BITMAP
00
00
7C
C6
FE
C0
7C
00
ENDCHAR
STARTCHAR U+043E
ENCODING 1086
SWIDTH 480 0
DWIDTH 8 0
BBX 8 8 0 -1
BITMAP
00
00
7C
C6
C6
C6
7C
00
ENDCHAR
STARTCHAR U+0440
ENCODING 1088
SWIDTH 480 0
DWIDTH 8 0
BBX 8 8 0 -1
BITMAP
00
00
DC
66
66
7C
60
F0
ENDCHAR
STARTCHAR U+0441
ENCODING 1089
SWIDTH 480 0
DWIDTH 8 0
BBX 8 8 0 -1
BITMAP
00
00
7C
C6
C0
C6
7C
00
ENDCHAR
STARTCHAR U+0443
ENCODING 1091
SWIDTH 480 0
DWIDTH 8 0
BBX 8 8 0 -1
BITMAP
00
00
C6
C6
C6
7E
06
FC
ENDCHAR
STARTCHAR U+0445
ENCODING 1093
SWIDTH 480 0
DWIDTH 8 0
BBX 8 8 0 -1
BITMAP
00
00
C6
6C
38
6C
C6
00
ENDCHAR
STARTCHAR U+0451
ENCODING 1105
SWIDTH 480 0
DWIDTH 8 0
BBX 8 8 0 -1
BITMAP
C6
00
7C
C6
FE
C0
7C
00
ENDCHAR
STARTCHAR U+0455
ENCODING 1109
SWIDTH 480 0
DWIDTH 8 0
BBX 8 8 0 -1
BITMAP
00
00
7E
C0
7C
06
FC
00
ENDCHAR
STARTCHAR U+0456
ENCODING 1110
SWIDTH 480 0
DWIDTH 8 0
BBX 8 8 0 -1
BITMAP
18
00
38
18
18
18
3C
00
ENDCHAR
STARTCHAR U+0457
ENCODING 1111
SWIDTH 480 0
DWIDTH 8 0
BBX 8 8 0 -1
BITMAP
66
00
38
18
18
18
3C
00
ENDCHAR
STARTCHAR U+0458
ENCODING 1112
SWIDTH 480 0
DWIDTH 8 0
BBX 8 8 0 -1
BITMAP
06
00
06
06
06
66
66
3C
ENDCHAR
STARTCHAR U+04AE
ENCODING 1198
SWIDTH 480 0
DWIDTH 8 0
BBX 8 8 0 -1
BITMAP
66
66
66
3C
18
18
3C
00
ENDCHAR
STARTCHAR U+2000
ENCODING 8192
SWIDTH 480 0
DWIDTH 8 0
BBX 8 8 0 -1
BITMAP
00
00
00
00
00
00
00
00
ENDCHAR
STARTCHAR U+2001
ENCODING 8193
SWIDTH 480 0
DWIDTH 8 0
BBX 8 8 0 -1
BITMAP
00
00
00
00
00
00
00
00
ENDCHAR
STARTCHAR U+2002
ENCODING 8194
SWIDTH 480 0
DWIDTH 8 0
BBX 8 8 0 -1
BITMAP
00
00
00
00
00
00
00
00
ENDCHAR
STARTCHAR U+2003
ENCODING 8195
SWIDTH 480 0
DWIDTH 8 0
BBX 8 8 0 -1
BITMAP
00
00
00
00
00
00
00
00
ENDCHAR
STARTCHAR U+2004
ENCODING 8196
SWIDTH 480 0
DWIDTH 8 0
BBX 8 8 0 -1
BITMAP
00
00
00
00
00
00
00
00
ENDCHAR
STARTCHAR U+2005
ENCODING 8197
SWIDTH 480 0
DWIDTH 8 0
BBX 8 8 0 -1
BITMAP
00
00
00
00
00
00
00
00
ENDCHAR
STARTCHAR U+2006
ENCODING 8198
SWIDTH 480 0
DWIDTH 8 0
BBX 8 8 0 -1
BITMAP
00
00
00
00
00
00
00
00
ENDCHAR
STARTCHAR U+2007
ENCODING 8199
SWIDTH 480 0
DWIDTH 8 0
BBX 8 8 0 -1
BITMAP
00
00
00
00
00
00
00
00
ENDCHAR
STARTCHAR U+2008
ENCODING 8200
SWIDTH 480 0
DWIDTH 8 0
BBX 8 8 0 -1
BITMAP
00
00
00
00
00
00
00
00
ENDCHAR
STARTCHAR U+2009
ENCODING 8201
SWIDTH 480 0
DWIDTH 8 0
BBX 8 8 0 -1
BITMAP
00
00
00
00
00
00
00
00
ENDCHAR
STARTCHAR U+200A
ENCODING 8202
SWIDTH 480 0
DWIDTH 8 0
BBX 8 8 0 -1
BITMAP
00
00
00
00
00
00
00
00
ENDCHAR
STARTCHAR U+2010
ENCODING 8208
SWIDTH 480 0
DWIDTH 8 0
BBX 8 8 0 -1
BITMAP
00
00
00
7E
00
00
00
00
ENDCHAR
STARTCHAR U+2011
ENCODING 8209
SWIDTH 480 0
DWIDTH 8 0
BBX 8 8 0 -1
BITMAP
00
00
00
7E
00
00
00
00
ENDCHAR
STARTCHAR U+2012
ENCODING 8210
SWIDTH 480 0
DWIDTH 8 0
BBX 8 8 0 -1
BITMAP
00
00
00
7E
00
00
00
00
ENDCHAR
STARTCHAR U+2013
ENCODING 8211
SWIDTH 480 0
DWIDTH 8 0
BBX 8 8 0 -1
BITMAP
00
00
00
7E
00
00
00
00
ENDCHAR
STARTCHAR U+2014
ENCODING 8212
SWIDTH 480 0
DWIDTH 8 0
BBX 8 8 0 -1
BITMAP
00
00
00
00
FE
00
00
00
ENDCHAR
STARTCHAR U+2015
ENCODING 8213
SWIDTH 480 0
DWIDTH 8 0
BBX 8 8 0 -1
BITMAP
00
00
00
00
FE
00
00
00
ENDCHAR
STARTCHAR U+2018
ENCODING 8216
SWIDTH 480 0
DWIDTH 8 0
BBX 8 8 0 -1
BITMAP
00
38
30
18
00
00
00
00
ENDCHAR
STARTCHAR U+2019
ENCODING 8217
SWIDTH 480 0
DWIDTH 8 0
BBX 8 8 0 -1
BITMAP
00
38
18
70
00
00
00
00
ENDCHAR
STARTCHAR U+201A
ENCODING 8218
SWIDTH 480 0
DWIDTH 8 0
BBX 8 8 0 -1
BITMAP
00
00
00
00
00
38
18
70
ENDCHAR
STARTCHAR U+201C
ENCODING 8220
SWIDTH 480 0
DWIDTH 8 0
BBX 8 8 0 -1
BITMAP
66
CC
EE
00
00
00
00
00
ENDCHAR
STARTCHAR U+201D
ENCODING 8221
SWIDTH 480 0
DWIDTH 8 0
BBX 8 8 0 -1
BITMAP
00
EE
66
CC
00
00
00
00
ENDCHAR
STARTCHAR U+201E
ENCODING 8222
SWIDTH 480 0
DWIDTH 8 0
BBX 8 8 0 -1
BITMAP
00
00
00
00
00
EE
66
CC
ENDCHAR
STARTCHAR U+2022
ENCODING 8226
SWIDTH 480 0
DWIDTH 8 0
BBX 8 8 0 -1
BITMAP
00
00
18
3C
3C
18
00
00
ENDCHAR
STARTCHAR U+202F
ENCODING 8239
SWIDTH 480 0
DWIDTH 8 0
BBX 8 8 0 -1
BITMAP
00
00
00
00
00
00
00
00
ENDCHAR
STARTCHAR U+2039
ENCODING 8249
SWIDTH 480 0
DWIDTH 8 0
BBX 8 8 0 -1
BITMAP
00
00
18
30
60
30
18
00
ENDCHAR
STARTCHAR U+203A
ENCODING 8250
SWIDTH 480 0
DWIDTH 8 0
BBX 8 8 0 -1
BITMAP
00
00
30
18
0C
18
30
00
ENDCHAR
STARTCHAR U+203C
ENCODING 8252
SWIDTH 480 0
DWIDTH 8 0
BBX 8 8 0 -1
BITMAP
66
66
66
66
66
00
66
00
ENDCHAR
STARTCHAR U+207F
ENCODING 8319
SWIDTH 480 0
DWIDTH 8 0
BBX 8 8 0 -1
BITMAP
A0
D0
90
90
90
00
00
00
ENDCHAR
STARTCHAR U+20AC
ENCODING 8364
SWIDTH 480 0
DWIDTH 8 0
BBX 8 8 0 -1
BITMAP
38
64
F0
60
F0
64
38
00
ENDCHAR
STARTCHAR U+2116
ENCODING 8470
SWIDTH 480 0
DWIDTH 8 0
BBX 8 8 0 -1
BITMAP
1E
9E
D8
FA
D8
D8
D8
00
ENDCHAR
STARTCHAR U+2122
ENCODING 8482
SWIDTH 480 0
DWIDTH 8 0
BBX 8 8 0 -1
BITMAP
3C
42
B9
A5
B9
A5
42
3C
ENDCHAR
STARTCHAR U+2126
ENCODING 8486
SWIDTH 480 0
DWIDTH 8 0
BBX 8 8 0 -1
BITMAP
18
18
18
18
F8
00
00
00
ENDCHAR
STARTCHAR U+212A
ENCODING 8490
SWIDTH 480 0
DWIDTH 8 0
BBX 8 8 0 -1
BITMAP
E6
66
6C
78
6C
66
E6
00
ENDCHAR
STARTCHAR U+212B
ENCODING 8491
SWIDTH 480 0
DWIDTH 8 0
BBX 8 8 0 -1
BITMAP
38
00
7C
C6
FE
C6
C6
00
ENDCHAR
STARTCHAR U+2190
ENCODING 8592
SWIDTH 480 0
DWIDTH 8 0
BBX 8 8 0 -1
BITMAP
00
30
60
FE
60
30
00
00
ENDCHAR
STARTCHAR U+2191
ENCODING 8593
SWIDTH 480 0
DWIDTH 8 0
BBX 8 8 0 -1
BITMAP
18
3C
7E
18
18
18
18
00
ENDCHAR
STARTCHAR U+2192
ENCODING 8594
SWIDTH 480 0
DWIDTH 8 0
BBX 8 8 0 -1
BITMAP
00
18
0C
FE
0C
18
00
00
ENDCHAR
STARTCHAR U+2193
ENCODING 8595
SWIDTH 480 0
DWIDTH 8 0
BBX 8 8 0 -1
BITMAP
18
18
18
18
7E
3C
18
00
ENDCHAR
STARTCHAR U+2194
ENCODING 8596
SWIDTH 480 0
DWIDTH 8 0
BBX 8 8 0 -1
BITMAP
00
24
66
FF
66
24
00
00
ENDCHAR
STARTCHAR U+2195
ENCODING 8597
SWIDTH 480 0
DWIDTH 8 0
BBX 8 8 0 -1
BITMAP
18
3C
7E
18
18
7E
3C
18
ENDCHAR
STARTCHAR U+21A8
ENCODING 8616
SWIDTH 480 0
DWIDTH 8 0
BBX 8 8 0 -1
BITMAP
18
3C
7E
18
7E
3C
18
FF
ENDCHAR
STARTCHAR U+21B5
ENCODING 8629
SWIDTH 480 0
DWIDTH 8 0
BBX 8 8 0 -1
BITMAP
06
06
36
66
FE
60
30
00
ENDCHAR
STARTCHAR U+2206
ENCODING 8710
SWIDTH 480 0
DWIDTH 8 0
BBX 8 8 0 -1
BITMAP
00
00
00
00
FF
00
00
00
ENDCHAR
STARTCHAR U+2212
ENCODING 8722
SWIDTH 480 0
DWIDTH 8 0
BBX 8 8 0 -1
BITMAP
00
00
00
7E
00
00
00
00
ENDCHAR
STARTCHAR U+2219
ENCODING 8729
SWIDTH 480 0
DWIDTH 8 0
BBX 8 8 0 -1
BITMAP
00
00
00
30
30
00
00
00
ENDCHAR
STARTCHAR U+221A
ENCODING 8730
SWIDTH 480 0
DWIDTH 8 0
BBX 8 8 0 -1
BITMAP
1F
10
10
90
50
30
10
00
ENDCHAR
STARTCHAR U+221F
ENCODING 8735
SWIDTH 480 0
DWIDTH 8 0
BBX 8 8 0 -1
BITMAP
00
00
C0
C0
C0
FE
00
00
ENDCHAR
STARTCHAR U+2248
ENCODING 8776
SWIDTH 480 0
DWIDTH 8 0
BBX 8 8 0 -1
BITMAP
00
00
64
98
00
64
98
00
ENDCHAR
STARTCHAR U+2260
ENCODING 8800
SWIDTH 480 0
DWIDTH 8 0
BBX 8 8 0 -1
BITMAP
00
0C
FE
18
30
FE
60
00
ENDCHAR
STARTCHAR U+2264
ENCODING 8804
SWIDTH 480 0
DWIDTH 8 0
BBX 8 8 0 -1
BITMAP
18
30
60
30
18
00
78
00
ENDCHAR
STARTCHAR U+2265
ENCODING 8805
SWIDTH 480 0
DWIDTH 8 0
BBX 8 8 0 -1
BITMAP
60
30
18
30
60
00
78
00
ENDCHAR
STARTCHAR U+226A
ENCODING 8810
SWIDTH 480 0
DWIDTH 8 0
BBX 8 8 0 -1
BITMAP
00
33
66
CC
66
33
00
00
ENDCHAR
STARTCHAR U+226B
ENCODING 8811
SWIDTH 480 0
DWIDTH 8 0
BBX 8 8 0 -1
BITMAP
00
CC
66
33
66
CC
00
00
ENDCHAR
STARTCHAR U+2295
ENCODING 8853
SWIDTH 480 0
DWIDTH 8 0
BBX 8 8 0 -1
BITMAP
00
18
18
7E
18
18
00
00
ENDCHAR
STARTCHAR U+2296
ENCODING 8854
SWIDTH 480 0
DWIDTH 8 0
BBX 8 8 0 -1
BITMAP
00
00
00
7E
00
00
00
00
ENDCHAR
STARTCHAR U+2298
ENCODING 8856
SWIDTH 480 0
DWIDTH 8 0
BBX 8 8 0 -1
BITMAP
06
0C
18
30
60
C0
80
00
ENDCHAR
STARTCHAR U+2299
ENCODING 8857
SWIDTH 480 0
DWIDTH 8 0
BBX 8 8 0 -1
BITMAP
00
00
00
00
00
18
18
00
ENDCHAR
STARTCHAR U+229B
ENCODING 8859
SWIDTH 480 0
DWIDTH 8 0
BBX 8 8 0 -1
BITMAP
00
66
3C
FF
3C
66
00
00
ENDCHAR
STARTCHAR U+229C
ENCODING 8860
SWIDTH 480 0
DWIDTH 8 0
BBX 8 8 0 -1
BITMAP
00
00
7E
00
00
7E
00
00
ENDCHAR
STARTCHAR U+2302
ENCODING 8962
SWIDTH 480 0
DWIDTH 8 0
BBX 8 8 0 -1
BITMAP
00
10
38
6C
C6
C6
FE
00
ENDCHAR
STARTCHAR U+2320
ENCODING 8992
SWIDTH 480 0
DWIDTH 8 0
BBX 8 8 0 -1
BITMAP
08
14
10
10
10
10
10
10
ENDCHAR
STARTCHAR U+2321
ENCODING 8993
SWIDTH 480 0
DWIDTH 8 0
BBX 8 8 0 -1
BITMAP
10
10
10
10
10
50
20
00
ENDCHAR
STARTCHAR U+2460
ENCODING 9312
SWIDTH 480 0
DWIDTH 8 0
BBX 8 8 0 -1
BITMAP
18
38
18
18
18
18
7E
00
ENDCHAR
STARTCHAR U+2461
ENCODING 9313
SWIDTH 480 0
DWIDTH 8 0
BBX 8 8 0 -1
BITMAP
7C
C6
06
1C
30
66
FE
00
ENDCHAR
STARTCHAR U+2462
ENCODING 9314
SWIDTH 480 0
DWIDTH 8 0
BBX 8 8 0 -1
BITMAP
7C
C6
06
3C
06
C6
7C
00
ENDCHAR
STARTCHAR U+2463
ENCODING 9315
SWIDTH 480 0
DWIDTH 8 0
BBX 8 8 0 -1
BITMAP
1C
3C
6C
CC
FE
0C
1E
00
ENDCHAR
STARTCHAR U+2464
ENCODING 9316
SWIDTH 480 0
DWIDTH 8 0
BBX 8 8 0 -1
BITMAP
FE
C0
C0
FC
06
C6
7C
00
ENDCHAR
STARTCHAR U+2465
ENCODING 9317
SWIDTH 480 0
DWIDTH 8 0
BBX 8 8 0 -1
BITMAP
38
60
C0
FC
C6
C6
7C
00
ENDCHAR
STARTCHAR U+2466
ENCODING 9318
SWIDTH 480 0
DWIDTH 8 0
BBX 8 8 0 -1
BITMAP
FE
C6
0C
18
30
30
30
00
ENDCHAR
STARTCHAR U+2467
ENCODING 9319
SWIDTH 480 0
DWIDTH 8 0
BBX 8 8 0 -1
BITMAP
7C
C6
C6
7C
C6
C6
7C
00
ENDCHAR
STARTCHAR U+2468
ENCODING 9320
SWIDTH 480 0
DWIDTH 8 0
BBX 8 8 0 -1
BITMAP
7C
C6
C6
7E
06
0C
78
00
ENDCHAR
STARTCHAR U+24B6
ENCODING 9398
SWIDTH 480 0
DWIDTH 8 0
BBX 8 8 0 -1
BITMAP
38
6C
C6
FE
C6
C6
C6
00
ENDCHAR
STARTCHAR U+24B7
ENCODING 9399
SWIDTH 480 0
DWIDTH 8 0
BBX 8 8 0 -1
BITMAP
FC
66
66
7C
66
66
FC
00
ENDCHAR
STARTCHAR U+24B8
ENCODING 9400
SWIDTH 480 0
DWIDTH 8 0
BBX 8 8 0 -1
BITMAP
3C
66
C0
C0
C0
66
3C
00
ENDCHAR
STARTCHAR U+24B9
ENCODING 9401
SWIDTH 480 0
DWIDTH 8 0
BBX 8 8 0 -1
BITMAP
F8
6C
66
66
66
6C
F8
00
ENDCHAR
STARTCHAR U+24BA
ENCODING 9402
SWIDTH 480 0
DWIDTH 8 0
BBX 8 8 0 -1
BITMAP
FE
62
68
78
68
62
FE
00
ENDCHAR
STARTCHAR U+24BB
ENCODING 9403
SWIDTH 480 0
DWIDTH 8 0
BBX 8 8 0 -1
BITMAP
FE
62
68
78
68
60
F0
00
ENDCHAR
STARTCHAR U+24BC
ENCODING 9404
SWIDTH 480 0
DWIDTH 8 0
BBX 8 8 0 -1
BITMAP
3C
66
C0
C0
CE
66
3A
00
ENDCHAR
STARTCHAR U+24BD
ENCODING 9405
SWIDTH 480 0
DWIDTH 8 0
BBX 8 8 0 -1
BITMAP
C6
C6
C6
FE
C6
C6
C6
00
ENDCHAR
STARTCHAR U+24BE
ENCODING 9406
SWIDTH 480 0
DWIDTH 8 0
BBX 8 8 0 -1
BITMAP
3C
18
18
18
18
18
3C
00
ENDCHAR
STARTCHAR U+24BF
ENCODING 9407
SWIDTH 480 0
DWIDTH 8 0
BBX 8 8 0 -1
BITMAP
1E
0C
0C
0C
CC
CC
78
00
ENDCHAR
STARTCHAR U+24C0
ENCODING 9408
SWIDTH 480 0
DWIDTH 8 0
BBX 8 8 0 -1
BITMAP
E6
66
6C
78
6C
66
E6
00
ENDCHAR
STARTCHAR U+24C1
ENCODING 9409
SWIDTH 480 0
DWIDTH 8 0
BBX 8 8 0 -1
BITMAP
F0
60
60
60
62
66
FE
00
ENDCHAR
STARTCHAR U+24C2
ENCODING 9410
SWIDTH 480 0
DWIDTH 8 0
BBX 8 8 0 -1
BITMAP
C6
EE
FE
FE
D6
C6
C6
00
ENDCHAR
STARTCHAR U+24C3
ENCODING 9411
SWIDTH 480 0
DWIDTH 8 0
BBX 8 8 0 -1
BITMAP
C6
E6
F6
DE
CE
C6
C6
00
ENDCHAR
STARTCHAR U+24C4
ENCODING 9412
SWIDTH 480 0
DWIDTH 8 0
BBX 8 8 0 -1
BITMAP
7C
C6
C6
C6
C6
C6
7C
00
ENDCHAR
STARTCHAR U+24C5
ENCODING 9413
SWIDTH 480 0
DWIDTH 8 0
BBX 8 8 0 -1
BITMAP
FC
66
66
7C
60
60
F0
00
ENDCHAR
STARTCHAR U+24C6
ENCODING 9414
SWIDTH 480 0
DWIDTH 8 0
BBX 8 8 0 -1
BITMAP
7C
C6
C6
C6
C6
CE
7C
0E
ENDCHAR
STARTCHAR U+24C7
ENCODING 9415
SWIDTH 480 0
DWIDTH 8 0
BBX 8 8 0 -1
BITMAP
FC
66
66
7C
6C
66
E6
00
ENDCHAR
STARTCHAR U+24C8
ENCODING 9416
SWIDTH 480 0
DWIDTH 8 0
BBX 8 8 0 -1
BITMAP
3C
66
30
18
0C
66
3C
00
ENDCHAR
STARTCHAR U+24C9
ENCODING 9417
SWIDTH 480 0
DWIDTH 8 0
BBX 8 8 0 -1
BITMAP
7E
7E
5A
18
18
18
3C
00
ENDCHAR
STARTCHAR U+24CA
ENCODING 9418
SWIDTH 480 0
DWIDTH 8 0
BBX 8 8 0 -1
BITMAP
C6
C6
C6
C6
C6
C6
7C
00
ENDCHAR
STARTCHAR U+24CB
ENCODING 9419
SWIDTH 480 0
DWIDTH 8 0
BBX 8 8 0 -1
BITMAP
C6
C6
C6
C6
C6
6C
38
00
ENDCHAR
STARTCHAR U+24CC
ENCODING 9420
SWIDTH 480 0
DWIDTH 8 0
BBX 8 8 0 -1
BITMAP
C6
C6
C6
D6
D6
FE
6C
00
ENDCHAR
STARTCHAR U+24CD
ENCODING 9421
SWIDTH 480 0
DWIDTH 8 0
BBX 8 8 0 -1
BITMAP
C6
C6
6C
38
6C
C6
C6
00
ENDCHAR
STARTCHAR U+24CE
ENCODING 9422
SWIDTH 480 0
DWIDTH 8 0
BBX 8 8 0 -1
BITMAP
66
66
66
3C
18
18
3C
00
ENDCHAR
STARTCHAR U+24CF
ENCODING 9423
SWIDTH 480 0
DWIDTH 8 0
BBX 8 8 0 -1
BITMAP
FE
C6
8C
18
32
66
FE
00
ENDCHAR
STARTCHAR U+24D0
ENCODING 9424
SWIDTH 480 0
DWIDTH 8 0
BBX 8 8 0 -1
BITMAP
00
00
78
0C
7C
CC
76
00
ENDCHAR
STARTCHAR U+24D1
ENCODING 9425
SWIDTH 480 0
DWIDTH 8 0
BBX 8 8 0 -1
BITMAP
E0
60
7C
66
66
66
DC
00
ENDCHAR
STARTCHAR U+24D2
ENCODING 9426
SWIDTH 480 0
DWIDTH 8 0
BBX 8 8 0 -1
BITMAP
00
00
7C
C6
C0
C6
7C
00
ENDCHAR
STARTCHAR U+24D3
ENCODING 9427
SWIDTH 480 0
DWIDTH 8 0
BBX 8 8 0 -1
BITMAP
1C
0C
7C
CC
CC
CC
76
00
ENDCHAR
STARTCHAR U+24D4
ENCODING 9428
SWIDTH 480 0
DWIDTH 8 0
BBX 8 8 0 -1
BITMAP
00
00
7C
C6
FE
C0
7C
00
ENDCHAR
STARTCHAR U+24D5
ENCODING 9429
SWIDTH 480 0
DWIDTH 8 0
BBX 8 8 0 -1
BITMAP
3C
66
60
F8
60
60
F0
00
ENDCHAR
STARTCHAR U+24D6
ENCODING 9430
SWIDTH 480 0
DWIDTH 8 0
BBX 8 8 0 -1
BITMAP
00
00
76
CC
CC
7C
0C
F8
ENDCHAR
STARTCHAR U+24D7
ENCODING 9431
SWIDTH 480 0
DWIDTH 8 0
BBX 8 8 0 -1
BITMAP
E0
60
6C
76
66
66
E6
00
ENDCHAR
STARTCHAR U+24D8
ENCODING 9432
SWIDTH 480 0
DWIDTH 8 0
BBX 8 8 0 -1
BITMAP
18
00
38
18
18
18
3C
00
ENDCHAR
STARTCHAR U+24D9
ENCODING 9433
SWIDTH 480 0
DWIDTH 8 0
BBX 8 8 0 -1
BITMAP
06
00
06
06
06
66
66
3C
ENDCHAR
STARTCHAR U+24DA
ENCODING 9434
SWIDTH 480 0
DWIDTH 8 0
BBX 8 8 0 -1
BITMAP
E0
60
66
6C
78
6C
E6
00
ENDCHAR
STARTCHAR U+24DB
ENCODING 9435
SWIDTH 480 0
DWIDTH 8 0
BBX 8 8 0 -1
BITMAP
38
18
18
18
18
18
3C
00
ENDCHAR
STARTCHAR U+24DC
ENCODING 9436
SWIDTH 480 0
DWIDTH 8 0
BBX 8 8 0 -1
BITMAP
00
00
EC
FE
D6
D6
D6
00
ENDCHAR
STARTCHAR U+24DD
ENCODING 9437
SWIDTH 480 0
DWIDTH 8 0
BBX 8 8 0 -1
BITMAP
00
00
DC
66
66
66
66
00
ENDCHAR
STARTCHAR U+24DE
ENCODING 9438
SWIDTH 480 0
DWIDTH 8 0
BBX 8 8 0 -1
BITMAP
00
00
7C
C6
C6
C6
7C
00
ENDCHAR
STARTCHAR U+24DF
ENCODING 9439
SWIDTH 480 0
DWIDTH 8 0
BBX 8 8 0 -1
BITMAP
00
00
DC
66
66
7C
60
F0
ENDCHAR
STARTCHAR U+24E0
ENCODING 9440
SWIDTH 480 0
DWIDTH 8 0
BBX 8 8 0 -1
BITMAP
00
00
76
CC
CC
7C
0C
1E
ENDCHAR
STARTCHAR U+24E1
ENCODING 9441
SWIDTH 480 0
DWIDTH 8 0
BBX 8 8 0 -1
BITMAP
00
00
DC
76
60
60
F0
00
ENDCHAR
STARTCHAR U+24E2
ENCODING 9442
SWIDTH 480 0
DWIDTH 8 0
BBX 8 8 0 -1
BITMAP
00
00
7E
C0
7C
06
FC
00
ENDCHAR
STARTCHAR U+24E3
ENCODING 9443
SWIDTH 480 0
DWIDTH 8 0
BBX 8 8 0 -1
BITMAP
30
30
FC
30
30
36
1C
00
ENDCHAR
STARTCHAR U+24E4
ENCODING 9444
SWIDTH 480 0
DWIDTH 8 0
BBX 8 8 0 -1
BITMAP
00
00
CC
CC
CC
CC
76
00
ENDCHAR
STARTCHAR U+24E5
ENCODING 9445
SWIDTH 480 0
DWIDTH 8 0
BBX 8 8 0 -1
BITMAP
00
00
C6
C6
C6
6C
38
00
ENDCHAR
STARTCHAR U+24E6
ENCODING 9446
SWIDTH 480 0
DWIDTH 8 0
BBX 8 8 0 -1
BITMAP
00
00
C6
D6
D6
FE
6C
00
ENDCHAR
STARTCHAR U+24E7
ENCODING 9447
SWIDTH 480 0
DWIDTH 8 0
BBX 8 8 0 -1
BITMAP
00
00
C6
6C
38
6C
C6
00
ENDCHAR
STARTCHAR U+24E8
ENCODING 9448
SWIDTH 480 0
DWIDTH 8 0
BBX 8 8 0 -1
BITMAP
00
00
C6
C6
C6
7E
06
FC
ENDCHAR
STARTCHAR U+24E9
ENCODING 9449
SWIDTH 480 0
DWIDTH 8 0
BBX 8 8 0 -1
BITMAP
00
00
7E
4C
18
32
7E
00
ENDCHAR
STARTCHAR U+24EA
ENCODING 9450
SWIDTH 480 0
DWIDTH 8 0
BBX 8 8 0 -1
BITMAP
38
6C
C6
D6
C6
6C
38
00
ENDCHAR
STARTCHAR U+2500
ENCODING 9472
SWIDTH 480 0
DWIDTH 8 0
BBX 8 8 0 -1
BITMAP
00
00
00
00
FF
00
00
00
ENDCHAR
STARTCHAR U+2501
ENCODING 9473
SWIDTH 480 0
DWIDTH 8 0
BBX 8 8 0 -1
BITMAP
00
00
00
00
FF
00
00
00
ENDCHAR
STARTCHAR U+2502
ENCODING 9474
SWIDTH 480 0
DWIDTH 8 0
BBX 8 8 0 -1
BITMAP
18
18
18
18
18
18
18
18
ENDCHAR
STARTCHAR U+2503
ENCODING 9475
SWIDTH 480 0
DWIDTH 8 0
BBX 8 8 0 -1
BITMAP
18
18
18
18
18
18
18
18
ENDCHAR
STARTCHAR U+2504
ENCODING 9476
SWIDTH 480 0
DWIDTH 8 0
BBX 8 8 0 -1
BITMAP
00
00
00
00
FF
00
00
00
ENDCHAR
STARTCHAR U+2505
ENCODING 9477
SWIDTH 480 0
DWIDTH 8 0
BBX 8 8 0 -1
BITMAP
00
00
00
00
FF
00
00
00
ENDCHAR
STARTCHAR U+2506
ENCODING 9478
SWIDTH 480 0
DWIDTH 8 0
BBX 8 8 0 -1
BITMAP
18
18
18
18
18
18
18
18
ENDCHAR
STARTCHAR U+2507
ENCODING 9479
SWIDTH 480 0
DWIDTH 8 0
BBX 8 8 0 -1
BITMAP
18
18
18
18
18
18
18
18
ENDCHAR
STARTCHAR U+2508
ENCODING 9480
SWIDTH 480 0
DWIDTH 8 0
BBX 8 8 0 -1
BITMAP
00
00
00
00
FF
00
00
00
ENDCHAR
STARTCHAR U+2509
ENCODING 9481
SWIDTH 480 0
DWIDTH 8 0
BBX 8 8 0 -1
BITMAP
00
00
00
00
FF
00
00
00
ENDCHAR
STARTCHAR U+250A
ENCODING 9482
SWIDTH 480 0
DWIDTH 8 0
BBX 8 8 0 -1
BITMAP
18
18
18
18
18
18
18
18
ENDCHAR
STARTCHAR U+250B
ENCODING 9483
SWIDTH 480 0
DWIDTH 8 0
BBX 8 8 0 -1
BITMAP
18
18
18
18
18
18
18
18
ENDCHAR
STARTCHAR U+250C
ENCODING 9484
SWIDTH 480 0
DWIDTH 8 0
BBX 8 8 0 -1
BITMAP
00
00
00
00
1F
18
18
18
ENDCHAR
STARTCHAR U+250D
ENCODING 9485
SWIDTH 480 0
DWIDTH 8 0
BBX 8 8 0 -1
BITMAP
00
00
00
00
1F
18
18
18
ENDCHAR
STARTCHAR U+250E
ENCODING 9486
SWIDTH 480 0
DWIDTH 8 0
BBX 8 8 0 -1
BITMAP
00
00
00
00
1F
18
18
18
ENDCHAR
STARTCHAR U+250F
ENCODING 9487
SWIDTH 480 0
DWIDTH 8 0
BBX 8 8 0 -1
BITMAP
00
00
00
00
1F
18
18
18
ENDCHAR
STARTCHAR U+2510
ENCODING 9488
SWIDTH 480 0
DWIDTH 8 0
BBX 8 8 0 -1
BITMAP
00
00
00
00
F8
18
18
18
ENDCHAR
STARTCHAR U+2511
ENCODING 9489
SWIDTH 480 0
DWIDTH 8 0
BBX 8 8 0 -1
BITMAP
00
00
00
00
F8
18
18
18
ENDCHAR
STARTCHAR U+2512
ENCODING 9490
SWIDTH 480 0
DWIDTH 8 0
BBX 8 8 0 -1
BITMAP
00
00
00
00
F8
18
18
18
ENDCHAR
STARTCHAR U+2513
ENCODING 9491
SWIDTH 480 0
DWIDTH 8 0
BBX 8 8 0 -1
BITMAP
00
00
00
00
F8
18
18
18
ENDCHAR
STARTCHAR U+2514
ENCODING 9492
SWIDTH 480 0
DWIDTH 8 0
BBX 8 8 0 -1
BITMAP
18
18
18
18
1F
00
00
00
ENDCHAR
STARTCHAR U+2515
ENCODING 9493
SWIDTH 480 0
DWIDTH 8 0
BBX 8 8 0 -1
BITMAP
18
18
18
18
1F
00
00
00
ENDCHAR
STARTCHAR U+2516
ENCODING 9494
SWIDTH 480 0
DWIDTH 8 0
BBX 8 8 0 -1
BITMAP
18
18
18
18
1F
00
00
00
ENDCHAR
STARTCHAR U+2517
ENCODING 9495
SWIDTH 480 0
DWIDTH 8 0
BBX 8 8 0 -1
BITMAP
18
18
18
18
1F
00
00
00
ENDCHAR
STARTCHAR U+2518
ENCODING 9496
SWIDTH 480 0
DWIDTH 8 0
BBX 8 8 0 -1
BITMAP
18
18
18
18
F8
00
00
00
ENDCHAR
STARTCHAR U+2519
ENCODING 9497
SWIDTH 480 0
DWIDTH 8 0
BBX 8 8 0 -1
BITMAP
18
18
18
18
F8
00
00
00
ENDCHAR
STARTCHAR U+251A
ENCODING 9498
SWIDTH 480 0
DWIDTH 8 0
BBX 8 8 0 -1
BITMAP
18
18
18
18
F8
00
00
00
ENDCHAR
STARTCHAR U+251B
ENCODING 9499
SWIDTH 480 0
DWIDTH 8 0
BBX 8 8 0 -1
BITMAP
18
18
18
18
F8
00
00
00
ENDCHAR
STARTCHAR U+251C
ENCODING 9500
SWIDTH 480 0
DWIDTH 8 0
BBX 8 8 0 -1
BITMAP
18
18
18
18
1F
18
18
18
ENDCHAR
STARTCHAR U+251D
ENCODING 9501
SWIDTH 480 0
DWIDTH 8 0
BBX 8 8 0 -1
BITMAP
18
18
18
18
1F
18
18
18
ENDCHAR
STARTCHAR U+251E
ENCODING 9502
SWIDTH 480 0
DWIDTH 8 0
BBX 8 8 0 -1
BITMAP
18
18
18
18
1F
18
18
18
ENDCHAR
STARTCHAR U+251F
ENCODING 9503
SWIDTH 480 0
DWIDTH 8 0
BBX 8 8 0 -1
BITMAP
18
18
18
18
1F
18
18
18
ENDCHAR
STARTCHAR U+2520
ENCODING 9504
SWIDTH 480 0
DWIDTH 8 0
BBX 8 8 0 -1
BITMAP
18
18
18
18
1F
18
18
18
ENDCHAR
STARTCHAR U+2521
ENCODING 9505
SWIDTH 480 0
DWIDTH 8 0
BBX 8 8 0 -1
BITMAP
18
18
18
18
1F
18
18
18
ENDCHAR
STARTCHAR U+2522
ENCODING 9506
SWIDTH 480 0
DWIDTH 8 0
BBX 8 8 0 -1
BITMAP
18
18
18
18
1F
18
18
18
ENDCHAR
STARTCHAR U+2523
ENCODING 9507
SWIDTH 480 0
DWIDTH 8 0
BBX 8 8 0 -1
BITMAP
18
18
18
18
1F
18
18
18
ENDCHAR
STARTCHAR U+2524
ENCODING 9508
SWIDTH 480 0
DWIDTH 8 0
BBX 8 8 0 -1
BITMAP
18
18
18
18
F8
18
18
18
ENDCHAR
STARTCHAR U+2525
ENCODING 9509
SWIDTH 480 0
DWIDTH 8 0
BBX 8 8 0 -1
BITMAP
18
18
18
18
F8
18
18
18
ENDCHAR
STARTCHAR U+2526
ENCODING 9510
SWIDTH 480 0
DWIDTH 8 0
BBX 8 8 0 -1
BITMAP
18
18
18
18
F8
18
18
18
ENDCHAR
STARTCHAR U+2527
ENCODING 9511
SWIDTH 480 0
DWIDTH 8 0
BBX 8 8 0 -1
BITMAP
18
18
18
18
F8
18
18
18
ENDCHAR
STARTCHAR U+2528
ENCODING 9512
SWIDTH 480 0
DWIDTH 8 0
BBX 8 8 0 -1
BITMAP
18
18
18
18
F8
18
18
18
ENDCHAR
STARTCHAR U+2529
ENCODING 9513
SWIDTH 480 0
DWIDTH 8 0
BBX 8 8 0 -1
BITMAP
18
18
18
18
F8
18
18
18
ENDCHAR
STARTCHAR U+252A
ENCODING 9514
SWIDTH 480 0
DWIDTH 8 0
BBX 8 8 0 -1
BITMAP
18
18
18
18
F8
18
18
18
ENDCHAR
STARTCHAR U+252B
ENCODING 9515
SWIDTH 480 0
DWIDTH 8 0
BBX 8 8 0 -1
BITMAP
18
18
18
18
F8
18
18
18
ENDCHAR
STARTCHAR U+252C
ENCODING 9516
SWIDTH 480 0
DWIDTH 8 0
BBX 8 8 0 -1
BITMAP
00
00
00
00
FF
18
18
18
ENDCHAR
STARTCHAR U+252D
ENCODING 9517
SWIDTH 480 0
DWIDTH 8 0
BBX 8 8 0 -1
BITMAP
00
00
00
00
FF
18
18
18
ENDCHAR
STARTCHAR U+252E
ENCODING 9518
SWIDTH 480 0
DWIDTH 8 0
BBX 8 8 0 -1
BITMAP
00
00
00
00
FF
18
18
18
ENDCHAR
STARTCHAR U+252F
ENCODING 9519
SWIDTH 480 0
DWIDTH 8 0
BBX 8 8 0 -1
BITMAP
00
00
00
00
FF
18
18
18
ENDCHAR
STARTCHAR U+2530
ENCODING 9520
SWIDTH 480 0
DWIDTH 8 0
BBX 8 8 0 -1
BITMAP
00
00
00
00
FF
18
18
18
ENDCHAR
STARTCHAR U+2531
ENCODING 9521
SWIDTH 480 0
DWIDTH 8 0
BBX 8 8 0 -1
BITMAP
00
00
00
00
FF
18
18
18
ENDCHAR
STARTCHAR U+2532
ENCODING 9522
SWIDTH 480 0
DWIDTH 8 0
BBX 8 8 0 -1
BITMAP
00
00
00
00
FF
18
18
18
ENDCHAR
STARTCHAR U+2533
ENCODING 9523
SWIDTH 480 0
DWIDTH 8 0
BBX 8 8 0 -1
BITMAP
00
00
00
00
FF
18
18
18
ENDCHAR
STARTCHAR U+2534
ENCODING 9524
SWIDTH 480 0
DWIDTH 8 0
BBX 8 8 0 -1
BITMAP
18
18
18
18
FF
00
00
00
ENDCHAR
STARTCHAR U+2535
ENCODING 9525
SWIDTH 480 0
DWIDTH 8 0
BBX 8 8 0 -1
BITMAP
18
18
18
18
FF
00
00
00
ENDCHAR
STARTCHAR U+2536
ENCODING 9526
SWIDTH 480 0
DWIDTH 8 0
BBX 8 8 0 -1
BITMAP
18
18
18
18
FF
00
00
00
ENDCHAR
STARTCHAR U+2537
ENCODING 9527
SWIDTH 480 0
DWIDTH 8 0
BBX 8 8 0 -1
BITMAP
18
18
18
18
FF
00
00
00
ENDCHAR
STARTCHAR U+2538
ENCODING 9528
SWIDTH 480 0
DWIDTH 8 0
BBX 8 8 0 -1
BITMAP
18
18
18
18
FF
00
00
00
ENDCHAR
STARTCHAR U+2539
ENCODING 9529
SWIDTH 480 0
DWIDTH 8 0
BBX 8 8 0 -1
BITMAP
18
18
18
18
FF
00
00
00
ENDCHAR
STARTCHAR U+253A
ENCODING 9530
SWIDTH 480 0
DWIDTH 8 0
BBX 8 8 0 -1
BITMAP
18
18
18
18
FF
00
00
00
ENDCHAR
STARTCHAR U+253B
ENCODING 9531
SWIDTH 480 0
DWIDTH 8 0
BBX 8 8 0 -1
BITMAP
18
18
18
18
FF
00
00
00
ENDCHAR
STARTCHAR U+253C
ENCODING 9532
SWIDTH 480 0
DWIDTH 8 0
BBX 8 8 0 -1
BITMAP
18
18
18
18
FF
18
18
18
ENDCHAR
STARTCHAR U+253D
ENCODING 9533
SWIDTH 480 0
DWIDTH 8 0
BBX 8 8 0 -1
BITMAP
18
18
18
18
FF
18
18
18
ENDCHAR
STARTCHAR U+253E
ENCODING 9534
SWIDTH 480 0
DWIDTH 8 0
BBX 8 8 0 -1
BITMAP
18
18
18
18
FF
18
18
18
ENDCHAR
STARTCHAR U+253F
ENCODING 9535
SWIDTH 480 0
DWIDTH 8 0
BBX 8 8 0 -1
BITMAP
18
18
18
18
FF
18
18
18
ENDCHAR
STARTCHAR U+2540
ENCODING 9536
SWIDTH 480 0
DWIDTH 8 0
BBX 8 8 0 -1
BITMAP
18
18
18
18
FF
18
18
18
ENDCHAR
STARTCHAR U+2541
ENCODING 9537
SWIDTH 480 0
DWIDTH 8 0
BBX 8 8 0 -1
BITMAP
18
18
18
18
FF
18
18
18
ENDCHAR
STARTCHAR U+2542
ENCODING 9538
SWIDTH 480 0
DWIDTH 8 0
BBX 8 8 0 -1
BITMAP
18
18
18
18
FF
18
18
18
ENDCHAR
STARTCHAR U+2543
ENCODING 9539
SWIDTH 480 0
DWIDTH 8 0
BBX 8 8 0 -1
BITMAP
18
18
18
18
FF
18
18
18
ENDCHAR
STARTCHAR U+2544
ENCODING 9540
SWIDTH 480 0
DWIDTH 8 0
BBX 8 8 0 -1
BITMAP
18
18
18
18
FF
18
18
18
ENDCHAR
STARTCHAR U+2545
ENCODING 9541
SWIDTH 480 0
DWIDTH 8 0
BBX 8 8 0 -1
BITMAP
18
18
18
18
FF
18
18
18
ENDCHAR
STARTCHAR U+2546
ENCODING 9542
SWIDTH 480 0
DWIDTH 8 0
BBX 8 8 0 -1
BITMAP
18
18
18
18
FF
18
18
18
ENDCHAR
STARTCHAR U+2547
ENCODING 9543
SWIDTH 480 0
DWIDTH 8 0
BBX 8 8 0 -1
BITMAP
18
18
18
18
FF
18
18
18
ENDCHAR
STARTCHAR U+2548
ENCODING 9544
SWIDTH 480 0
DWIDTH 8 0
BBX 8 8 0 -1
BITMAP
18
18
18
18
FF
18
18
18
ENDCHAR
STARTCHAR U+2549
ENCODING 9545
SWIDTH 480 0
DWIDTH 8 0
BBX 8 8 0 -1
BITMAP
18
18
18
18
FF
18
18
18
ENDCHAR
STARTCHAR U+254A
ENCODING 9546
SWIDTH 480 0
DWIDTH 8 0
BBX 8 8 0 -1
BITMAP
18
18
18
18
FF
18
18
18
ENDCHAR
STARTCHAR U+254B
ENCODING 9547
SWIDTH 480 0
DWIDTH 8 0
BBX 8 8 0 -1
BITMAP
18
18
18
18
FF
18
18
18
ENDCHAR
STARTCHAR U+254C
ENCODING 9548
SWIDTH 480 0
DWIDTH 8 0
BBX 8 8 0 -1
BITMAP
00
00
00
00
FF
00
00
00
ENDCHAR
STARTCHAR U+254D
ENCODING 9549
SWIDTH 480 0
DWIDTH 8 0
BBX 8 8 0 -1
BITMAP
00
00
00
00
FF
00
00
00
ENDCHAR
STARTCHAR U+254E
ENCODING 9550
SWIDTH 480 0
DWIDTH 8 0
BBX 8 8 0 -1
BITMAP
18
18
18
18
18
18
18
18
ENDCHAR
STARTCHAR U+254F
ENCODING 9551
SWIDTH 480 0
DWIDTH 8 0
BBX 8 8 0 -1
BITMAP
18
18
18
18
18
18
18
18
ENDCHAR
STARTCHAR U+2550
ENCODING 9552
SWIDTH 480 0
DWIDTH 8 0
BBX 8 8 0 -1
BITMAP
00
00
00
00
FF
00
00
00
ENDCHAR
STARTCHAR U+2551
ENCODING 9553
SWIDTH 480 0
DWIDTH 8 0
BBX 8 8 0 -1
BITMAP
18
18
18
18
18
18
18
18
ENDCHAR
STARTCHAR U+2552
ENCODING 9554
SWIDTH 480 0
DWIDTH 8 0
BBX 8 8 0 -1
BITMAP
00
00
00
00
1F
18
18
18
ENDCHAR
STARTCHAR U+2553
ENCODING 9555
SWIDTH 480 0
DWIDTH 8 0
BBX 8 8 0 -1
BITMAP
00
00
00
00
1F
18
18
18
ENDCHAR
STARTCHAR U+2554
ENCODING 9556
SWIDTH 480 0
DWIDTH 8 0
BBX 8 8 0 -1
BITMAP
00
00
00
00
1F
18
18
18
ENDCHAR
STARTCHAR U+2555
ENCODING 9557
SWIDTH 480 0
DWIDTH 8 0
BBX 8 8 0 -1
BITMAP
00
00
00
00
F8
18
18
18
ENDCHAR
STARTCHAR U+2556
ENCODING 9558
SWIDTH 480 0
DWIDTH 8 0
BBX 8 8 0 -1
BITMAP
00
00
00
00
F8
18
18
18
ENDCHAR
STARTCHAR U+2557
ENCODING 9559
SWIDTH 480 0
DWIDTH 8 0
BBX 8 8 0 -1
BITMAP
00
00
00
00
F8
18
18
18
ENDCHAR
STARTCHAR U+2558
ENCODING 9560
SWIDTH 480 0
DWIDTH 8 0
BBX 8 8 0 -1
BITMAP
18
18
18
18
1F
00
00
00
ENDCHAR
STARTCHAR U+2559
ENCODING 9561
SWIDTH 480 0
DWIDTH 8 0
BBX 8 8 0 -1
BITMAP
18
18
18
18
1F
00
00
00
ENDCHAR
STARTCHAR U+255A
ENCODING 9562
SWIDTH 480 0
DWIDTH 8 0
BBX 8 8 0 -1
BITMAP
18
18
18
18
1F
00
00
00
ENDCHAR
STARTCHAR U+255B
ENCODING 9563
SWIDTH 480 0
DWIDTH 8 0
BBX 8 8 0 -1
BITMAP
18
18
18
18
F8
00
00
00
ENDCHAR
STARTCHAR U+255C
ENCODING 9564
SWIDTH 480 0
DWIDTH 8 0
BBX 8 8 0 -1
BITMAP
18
18
18
18
F8
00
00
00
ENDCHAR
STARTCHAR U+255D
ENCODING 9565
SWIDTH 480 0
DWIDTH 8 0
BBX 8 8 0 -1
BITMAP
18
18
18
18
F8
00
00
00
ENDCHAR
STARTCHAR U+255E
ENCODING 9566
SWIDTH 480 0
DWIDTH 8 0
BBX 8 8 0 -1
BITMAP
18
18
18
18
1F
18
18
18
ENDCHAR
STARTCHAR U+255F
ENCODING 9567
SWIDTH 480 0
DWIDTH 8 0
BBX 8 8 0 -1
BITMAP
18
18
18
18
1F
18
18
18
ENDCHAR
STARTCHAR U+2560
ENCODING 9568
SWIDTH 480 0
DWIDTH 8 0
BBX 8 8 0 -1
BITMAP
18
18
18
18
1F
18
18
18
ENDCHAR
STARTCHAR U+2561
ENCODING 9569
SWIDTH 480 0
DWIDTH 8 0
BBX 8 8 0 -1
BITMAP
18
18
18
18
F8
18
18
18
ENDCHAR
STARTCHAR U+2562
ENCODING 9570
SWIDTH 480 0
DWIDTH 8 0
BBX 8 8 0 -1
BITMAP
18
18
18
18
F8
18
18
18
ENDCHAR
STARTCHAR U+2563
ENCODING 9571
SWIDTH 480 0
DWIDTH 8 0
BBX 8 8 0 -1
BITMAP
18
18
18
18
F8
18
18
18
ENDCHAR
STARTCHAR U+2564
ENCODING 9572
SWIDTH 480 0
DWIDTH 8 0
BBX 8 8 0 -1
BITMAP
00
00
00
00
FF
18
18
18
ENDCHAR
STARTCHAR U+2565
ENCODING 9573
SWIDTH 480 0
DWIDTH 8 0
BBX 8 8 0 -1
BITMAP
00
00
00
00
FF
18
18
18
ENDCHAR
STARTCHAR U+2566
ENCODING 9574
SWIDTH 480 0
DWIDTH 8 0
BBX 8 8 0 -1
BITMAP
00
00
00
00
FF
18
18
18
ENDCHAR
STARTCHAR U+2567
ENCODING 9575
SWIDTH 480 0
DWIDTH 8 0
BBX 8 8 0 -1
BITMAP
18
18
18
18
FF
00
00
00
ENDCHAR
STARTCHAR U+2568
ENCODING 9576
SWIDTH 480 0
DWIDTH 8 0
BBX 8 8 0 -1
BITMAP
18
18
18
18
FF
00
00
00
ENDCHAR
STARTCHAR U+2569
ENCODING 9577
SWIDTH 480 0
DWIDTH 8 0
BBX 8 8 0 -1
BITMAP
18
18
18
18
FF
00
00
00
ENDCHAR
STARTCHAR U+256A
ENCODING 9578
SWIDTH 480 0
DWIDTH 8 0
BBX 8 8 0 -1
BITMAP
18
18
18
18
FF
18
18
18
ENDCHAR
STARTCHAR U+256B
ENCODING 9579
SWIDTH 480 0
DWIDTH 8 0
BBX 8 8 0 -1
BITMAP
18
18
18
18
FF
18
18
18
ENDCHAR
STARTCHAR U+256C
ENCODING 9580
SWIDTH 480 0
DWIDTH 8 0
BBX 8 8 0 -1
BITMAP
18
18
18
18
FF
18
18
18
ENDCHAR
STARTCHAR U+256D
ENCODING 9581
SWIDTH 480 0
DWIDTH 8 0
BBX 8 8 0 -1
BITMAP
00
00
00
00
1F
18
18
18
ENDCHAR
STARTCHAR U+256E
ENCODING 9582
SWIDTH 480 0
DWIDTH 8 0
BBX 8 8 0 -1
BITMAP
00
00
00
00
F8
18
18
18
ENDCHAR
STARTCHAR U+256F
ENCODING 9583
SWIDTH 480 0
DWIDTH 8 0
BBX 8 8 0 -1
BITMAP
18
18
18
18
F8
00
00
00
ENDCHAR
STARTCHAR U+2570
ENCODING 9584
SWIDTH 480 0
DWIDTH 8 0
BBX 8 8 0 -1
BITMAP
18
18
18
18
1F
00
00
00
ENDCHAR
STARTCHAR U+2571
ENCODING 9585
SWIDTH 480 0
DWIDTH 8 0
BBX 8 8 0 -1
BITMAP
06
0C
18
30
60
C0
80
00
ENDCHAR
STARTCHAR U+2572
ENCODING 9586
SWIDTH 480 0
DWIDTH 8 0
BBX 8 8 0 -1
BITMAP
C0
60
30
18
0C
06
02
00
ENDCHAR
STARTCHAR U+2573
ENCODING 9587
SWIDTH 480 0
DWIDTH 8 0
BBX 8 8 0 -1
BITMAP
C6
C6
6C
38
6C
C6
C6
00
ENDCHAR
STARTCHAR U+2574
ENCODING 9588
SWIDTH 480 0
DWIDTH 8 0
BBX 8 8 0 -1
BITMAP
00
00
00
00
FF
00
00
00
ENDCHAR
STARTCHAR U+2575
ENCODING 9589
SWIDTH 480 0
DWIDTH 8 0
BBX 8 8 0 -1
BITMAP
18
18
18
18
18
18
18
18
ENDCHAR
STARTCHAR U+2576
ENCODING 9590
SWIDTH 480 0
DWIDTH 8 0
BBX 8 8 0 -1
BITMAP
00
00
00
00
FF
00
00
00
ENDCHAR
STARTCHAR U+2577
ENCODING 9591
SWIDTH 480 0
DWIDTH 8 0
BBX 8 8 0 -1
BITMAP
18
18
18
18
18
18
18
18
ENDCHAR
STARTCHAR U+2578
ENCODING 9592
SWIDTH 480 0
DWIDTH 8 0
BBX 8 8 0 -1
BITMAP
00
00
00
00
FF
00
00
00
ENDCHAR
STARTCHAR U+2579
ENCODING 9593
SWIDTH 480 0
DWIDTH 8 0
BBX 8 8 0 -1
BITMAP
18
18
18
18
18
18
18
18
ENDCHAR
STARTCHAR U+257A
ENCODING 9594
SWIDTH 480 0
DWIDTH 8 0
BBX 8 8 0 -1
BITMAP
00
00
00
00
FF
00
00
00
ENDCHAR
STARTCHAR U+257B
ENCODING 9595
SWIDTH 480 0
DWIDTH 8 0
BBX 8 8 0 -1
BITMAP
18
18
18
18
18
18
18
18
ENDCHAR
STARTCHAR U+257C
ENCODING 9596
SWIDTH 480 0
DWIDTH 8 0
BBX 8 8 0 -1
BITMAP
00
00
00
00
FF
00
00
00
ENDCHAR
STARTCHAR U+257D
ENCODING 9597
SWIDTH 480 0
DWIDTH 8 0
BBX 8 8 0 -1
BITMAP
18
18
18
18
18
18
18
18
ENDCHAR
STARTCHAR U+257E
ENCODING 9598
SWIDTH 480 0
DWIDTH 8 0
BBX 8 8 0 -1
BITMAP
00
00
00
00
FF
00
00
00
ENDCHAR
STARTCHAR U+257F
ENCODING 9599
SWIDTH 480 0
DWIDTH 8 0
BBX 8 8 0 -1
BITMAP
18
18
18
18
18
18
18
18
ENDCHAR
STARTCHAR U+2588
ENCODING 9608
SWIDTH 480 0
DWIDTH 8 0
BBX 8 8 0 -1
BITMAP
FF
FF
FF
FF
FF
FF
FF
FF
ENDCHAR
STARTCHAR U+2591
ENCODING 9617
SWIDTH 480 0
DWIDTH 8 0
BBX 8 8 0 -1
BITMAP
22
88
22
88
22
88
22
88
ENDCHAR
STARTCHAR U+2592
ENCODING 9618
SWIDTH 480 0
DWIDTH 8 0
BBX 8 8 0 -1
BITMAP
55
AA
55
AA
55
AA
55
AA
ENDCHAR
STARTCHAR U+25A0
ENCODING 9632
SWIDTH 480 0
DWIDTH 8 0
BBX 8 8 0 -1
BITMAP
00
00
3C
3C
3C
3C
00
00
ENDCHAR
STARTCHAR U+25AE
ENCODING 9646
SWIDTH 480 0
DWIDTH 8 0
BBX 8 8 0 -1
BITMAP
00
00
3C
3C
3C
3C
00
00
ENDCHAR
STARTCHAR U+25B2
ENCODING 9650
SWIDTH 480 0
DWIDTH 8 0
BBX 8 8 0 -1
BITMAP
18
3C
7E
18
18
18
18
00
ENDCHAR
STARTCHAR U+25B4
ENCODING 9652
SWIDTH 480 0
DWIDTH 8 0
BBX 8 8 0 -1
BITMAP
18
3C
7E
18
18
18
18
00
ENDCHAR
STARTCHAR U+25B6
ENCODING 9654
SWIDTH 480 0
DWIDTH 8 0
BBX 8 8 0 -1
BITMAP
00
18
0C
FE
0C
18
00
00
ENDCHAR
STARTCHAR U+25B8
ENCODING 9656
SWIDTH 480 0
DWIDTH 8 0
BBX 8 8 0 -1
BITMAP
00
18
0C
FE
0C
18
00
00
ENDCHAR
STARTCHAR U+25BC
ENCODING 9660
SWIDTH 480 0
DWIDTH 8 0
BBX 8 8 0 -1
BITMAP
18
18
18
18
7E
3C
18
00
ENDCHAR
STARTCHAR U+25BE
ENCODING 9662
SWIDTH 480 0
DWIDTH 8 0
BBX 8 8 0 -1
BITMAP
18
18
18
18
7E
3C
18
00
ENDCHAR
STARTCHAR U+25C0
ENCODING 9664
SWIDTH 480 0
DWIDTH 8 0
BBX 8 8 0 -1
BITMAP
00
30
60
FE
60
30
00
00
ENDCHAR
STARTCHAR U+25C2
ENCODING 9666
SWIDTH 480 0
DWIDTH 8 0
BBX 8 8 0 -1
BITMAP
00
30
60
FE
60
30
00
00
ENDCHAR
STARTCHAR U+25C8
ENCODING 9672
SWIDTH 480 0
DWIDTH 8 0
BBX 8 8 0 -1
BITMAP
10
38
7C
FE
7C
38
10
00
ENDCHAR
STARTCHAR U+25CF
ENCODING 9679
SWIDTH 480 0
DWIDTH 8 0
BBX 8 8 0 -1
BITMAP
00
00
18
3C
3C
18
00
00
ENDCHAR
STARTCHAR U+2610
ENCODING 9744
SWIDTH 480 0
DWIDTH 8 0
BBX 8 8 0 -1
BITMAP
00
00
00
00
00
18
18
00
ENDCHAR
STARTCHAR U+2611
ENCODING 9745
SWIDTH 480 0
DWIDTH 8 0
BBX 8 8 0 -1
BITMAP
00
00
C6
C6
C6
6C
38
00
ENDCHAR
STARTCHAR U+2612
ENCODING 9746
SWIDTH 480 0
DWIDTH 8 0
BBX 8 8 0 -1
BITMAP
00
00
C6
6C
38
6C
C6
00
ENDCHAR
STARTCHAR U+2666
ENCODING 9830
SWIDTH 480 0
DWIDTH 8 0
BBX 8 8 0 -1
BITMAP
10
38
7C
FE
7C
38
10
00
ENDCHAR
STARTCHAR U+2717
ENCODING 10007
SWIDTH 480 0
DWIDTH 8 0
BBX 8 8 0 -1
BITMAP
00
00
C6
6C
38
6C
C6
00
ENDCHAR
STARTCHAR U+2718
ENCODING 10008
SWIDTH 480 0
DWIDTH 8 0
BBX 8 8 0 -1
BITMAP
00
00
C6
6C
38
6C
C6
00
ENDCHAR
STARTCHAR U+2BBD
ENCODING 11197
SWIDTH 480 0
DWIDTH 8 0
BBX 8 8 0 -1
BITMAP
00
00
C6
6C
38
6C
C6
00
ENDCHAR
STARTCHAR U+FFFD
ENCODING 65533
SWIDTH 480 0
DWIDTH 8 0
BBX 8 8 0 -1
BITMAP
10
38
7C
FE
7C
38
10
00
ENDCHAR
ENDFONT
